<?xml version="1.0" encoding="UTF-8"?><svg id="b" xmlns="http://www.w3.org/2000/svg" width="316" height="316" xmlns:xlink="http://www.w3.org/1999/xlink" viewBox="0 0 316 316"><defs><style>.i{fill:none;stroke:#000;}.j{fill:url(#d);}.j,.k,.l,.m,.n,.o,.p{fill-rule:evenodd;}.k,.q{fill:#13017c;}.l{fill:#fff;}.r{fill:#ffc700;}.m{fill:url(#f);}.s{fill:#b5d8e9;}.n{fill:url(#h);}.o{fill:url(#g);}.p{fill:url(#e);}.t{fill:#35aacd;}</style><linearGradient id="d" x1="107.08" y1="92.9" x2="177.5" y2="92.9" gradientUnits="userSpaceOnUse"><stop offset="0" stop-color="#ffff01"/><stop offset=".18" stop-color="#ffff01"/><stop offset="1" stop-color="#fe7312"/></linearGradient><linearGradient id="e" x1="132.58" y1="106.66" x2="158.94" y2="106.66" xlink:href="#d"/><linearGradient id="f" x1="117.87" y1="142.31" x2="215.06" y2="142.31" xlink:href="#d"/><linearGradient id="g" x1="161.18" y1="106.35" x2="218.65" y2="106.35" xlink:href="#d"/><linearGradient id="h" x1="137.01" y1="161.61" x2="189.24" y2="161.61" xlink:href="#d"/></defs><g id="c"><path class="q" d="M157.99,0c43.49,0,82.98,17.76,111.64,46.38,28.65,28.62,46.37,68.15,46.37,111.62s-17.73,83.02-46.37,111.66c-28.65,28.61-68.15,46.33-111.64,46.33s-82.96-17.73-111.61-46.33C17.75,241.02,0,201.53,0,158S17.75,75,46.37,46.38C75.03,17.76,114.53,0,157.99,0Z"/><path class="t" d="M158.01,8.34c-41.24,0-78.64,16.81-105.75,43.95C25.17,79.38,8.34,116.78,8.34,158s16.83,78.62,43.92,105.72c27.11,27.13,64.51,43.93,105.75,43.93s78.66-16.8,105.74-43.93c27.13-27.11,43.91-64.51,43.91-105.72s-16.78-78.62-43.91-105.72c-27.08-27.13-64.51-43.95-105.74-43.95Z"/><path class="q" d="M157.96,12.46c40.09,0,76.48,16.32,102.86,42.71,26.36,26.36,42.74,62.75,42.74,102.84s-16.38,76.48-42.74,102.82c-26.38,26.36-62.77,42.73-102.86,42.73s-76.43-16.37-102.8-42.73c-26.38-26.35-42.73-62.73-42.73-102.82S28.79,81.54,55.17,55.18c26.37-26.4,62.74-42.71,102.8-42.71h0Z"/><path class="r" d="M157.96,14.34c-39.54,0-75.45,16.14-101.48,42.17-26.02,26.03-42.18,61.98-42.18,101.53s16.15,75.45,42.18,101.48c26.03,26.02,61.94,42.18,101.48,42.18s75.49-16.15,101.53-42.18c26.02-26.02,42.19-61.89,42.19-101.48s-16.17-75.49-42.19-101.53c-26.04-26.03-61.95-42.17-101.53-42.17Z"/><path class="q" d="M157.96,45.68c30.95,0,59.04,12.59,79.39,32.96,20.32,20.36,32.97,48.47,32.97,79.37s-12.65,59.04-32.97,79.35c-20.34,20.35-48.43,32.97-79.39,32.97s-58.98-12.62-79.32-32.97c-20.37-20.32-32.97-48.4-32.97-79.35s12.61-59.01,32.97-79.37c20.34-20.37,48.45-32.96,79.32-32.96h0Z"/><path class="t" d="M157.97,47.52c-30.41,0-58.02,12.4-78.07,32.45-20.01,19.98-32.41,47.61-32.41,78.04s12.4,58.03,32.41,78.03c20.05,20.04,47.66,32.47,78.07,32.47s58.08-12.42,78.09-32.47c20.04-20,32.45-47.61,32.45-78.03s-12.41-58.07-32.45-78.04c-20.01-20.05-47.62-32.45-78.09-32.45Z"/><path class="r" d="M162.9,68.48c-4.67,0-4.9-5.13-4.9-5.13-.1.52-.78,5.11-4.67,5.11-2.5,0-4.79-1.53-4.98-4.67-.11-1.95,1.4-3.52,1.42-3.56-.14-.02-1.94-1.26-7.49-.71-4.81.81-8.62,3.6-12.48,6.36-3.69,2.57-7.21,5.14-10.76,7.87-5.44,4.15-9.51,7.68-15.24,11.45-5.4,3.53-10.6,6.63-16.51,9.14-2.01.84-5.04,1.85-7.05,2.49.03.27-.06,1.15-.06,1.4.23,15.69,1.86,31.07,5.29,46.23,3.59,15.6,8.85,30.52,15.86,44.78,6.73,13.7,14.98,26.05,24.95,37.86,9.29,11.02,19.72,20.25,31.72,28.85,12-8.6,21.99-17.32,31.28-28.35.15-.2.44-.56.6-.76,9.73-11.63,18.08-24.2,24.71-37.7,7-14.25,12.17-29.07,15.77-44.67,3.47-15.41,5.33-31.43,5.53-47.37-2.05-.64-3.51-1.1-5.53-1.97-5.9-2.49-11.62-5.44-16.99-8.98-5.74-3.81-11.16-8.17-16.61-12.35-3.51-2.7-7-5.28-10.67-7.86-3.84-2.74-7.41-5.52-12.21-6.32-4.72-.8-6.89.47-7.64.63,0,.03,1.32,1.21,1.32,3.04.46,1.64-1.11,5.19-4.66,5.19Z"/><path class="q" d="M87.58,144.01c3.45,15.09,8.56,29.72,15.31,43.48,6.54,13.26,14.59,25.79,24.21,37.2,8.99,10.64,19.31,20.3,30.88,28.6,11.61-8.3,21.98-17.95,30.93-28.6.15-.21.3-.37.48-.56h0c9.38-11.23,17.34-23.57,23.75-36.63,6.74-13.76,11.82-28.39,15.29-43.48,3.38-14.88,5.17-30.19,5.33-45.58-1.95-.64-3.89-1.38-5.82-2.19-5.7-2.44-11.17-5.48-16.35-8.91-5.54-3.66-10.65-7.88-15.9-11.93-3.42-2.62-6.9-5.22-10.42-7.68-3.77-2.64-7.36-5.51-12-6.28-1.52-.26-3.04-.26-4.48.06.26.64.39,1.41.39,2.19,0,3.51-2.83,6.37-6.32,6.37-1.92,0-3.68-.9-4.87-2.3-1.17,1.39-2.9,2.3-4.84,2.3-3.46,0-6.31-2.86-6.31-6.37,0-.78.14-1.55.39-2.19-1.4-.32-2.96-.32-4.5-.06-4.64.78-8.2,3.64-11.95,6.28-3.56,2.45-7.01,5.06-10.44,7.68-5.25,4.05-10.38,8.27-15.91,11.93-5.19,3.43-10.63,6.47-16.31,8.91-1.99.81-3.91,1.56-5.88,2.19.05.22.05.47.05.71h0c.18,15.17,1.98,30.23,5.32,44.87h0Z"/><path class="t" d="M106.53,190.72c1.45.86,4.01,1.6,6.76,1.9,1.63.21,3.33.28,4.75.1,1.09-.12,2.28-.36,3.19-.99,2.04-1.45-.39-3.43-1.83-4.42,1.06-1.11,4.1-2.86,11.59.73,5.53,2.63,8.87,4.08,11.35,4.81,2,.58,5.29,1.13,7.01-.27.4-.33.75-.95.85-1.36.19-1-.45-2.41-1.52-2.75h-.03c.75-.85,1.63-1.66,2.77-2.1,1.71-.64,4.13-.56,7.77,1.23,2.24,1.11,3.97,2.1,5.44,2.92,3.91,2.23,6.14,3.52,10.63,2.83l.3-.08c.78-.37,1.21-.89,1.38-1.44.16-.44.1-.86-.06-1.21-.15-.36-.4-.64-.72-.87-.42-.28-.99-.49-1.63-.56.05-.12.08-.26.15-.39.27-.54.75-1.1,1.36-1.61.67-.49,1.51-.85,2.49-1.07,1.51-.31,3.31-.09,5.39.92,3.37,1.68,6.17,2.96,8.34,3.78,2.31.87,4.03,1.21,5.12.98l.34-.1c.46-.33.76-.71.93-1.07h0c.18-.55.14-1.04-.09-1.54-.2-.38-.53-.73-.84-1.01h0c-.4-.3-.85-.53-1.34-.7,3.56-3.25,10.72-.23,13.76,2.12-.23.42-.46.89-.68,1.34-2.79-1.91-5.25-2.96-7.21-2.78-1.73.37-2.35,2.36-1.81,3.29,1.29-.43,2.15.54,1.14,2.01-4.26.1-9.41-.13-13.04-2.07-3.54-1.95-9.4-5.42-9.28-.65,2.78-.23.29,3.59-1.83,4.33-6.4,1.28-9.4-.09-9.7-.16-5.61-1.77-7.25-4.16-11.66-6.39-2.48-.55-3.85.15-3.32,2.76,1.21-.63,1.08,3.59-4.82,4.25-3.05.31-8.17-.97-12.15-3.08-6.24-3.29-11.87-4.51-12.47-1.47.71.19,1.87,2.13-.1,3.08-5.21,2.46-12.32.88-14.83.16-.64-1.12-1.21-2.24-1.81-3.42h0Z"/><path class="s" d="M105.23,188.17c1.57.97,5.78,2.24,8.25,2.54,1.44.16,1.42.31,2.62.19-1.65-.76-3.8-2.76-4.46-3.7l-.27.48-.73-.78c-.97-1.13-2.16-3.17-2.31-4.64l-.3.1v-1.03c0-.53-.35-.88-.76-1.21-.32-.33-.64-.62-.98-1.1l-.43-.58.51-.5c.77-.78.97-1.51,1.09-2.08.06-.25.14-.49.22-.71-.93-1.42-.46-2.57.47-3.55.15-.18.32-.35.5-.47,1.04-3.01,1.58-4.52,1.6-5.71.08-.99-.32-1.88-1.1-3.43h-.06c-.48-.21-1.03-.42-1.58-.6.18.88-.2,1.34-.61,1.83-.31.36-.65.75-.41,1.98l.33,1.72-1.51-.82c-2.07-1.19-2.31-2.21-2.76-4.2-.11-.57-.18-1.51-.35-1.98-.09-.31-1.93.45-2.17.52l.43-1.49c1.17-4.05,7.41-1.65,10.3-2.49-.93-.03-1.65-.11-2.36-.18-1.1-.11-2.08-.21-3.8-.11-1.06.04-2,.34-2.86.58h-.04c-1.29.37-2.5.74-3.79.37-.27-.06-1.13-.47-1.27-.66,1.63-.26,4.87-1.67,6.61-2.75h0c.08-.06.18-.13.24-.17,1.11-.63,2.3-.5,3.83-.34.73.07,1.46.14,2.29.14.14-.49.29-.96.39-1.48-.83-.07-1.33.17-1.6.61l-.59-.29c-.23-.7-.79-1.01-1.21-.89-.11.04-.39,1.17-.43,1.36l-.95-.8c-.7-.59-.8-.75-.8-.75-.06.04-.11.16-.18.29-.1.23-.19.45-.42.68l-.85,1-.47-1.24c-1.38-3.42-1.38-.27-1.04,1.38l.23,1.07-1.11-.14c-1.9-.17-2.47-1.51-3.54-4.03-.02-.14-.08-.24-.32-.89l-.05-.06c-.23-.76.26-1.05.89-1.41.4-.24,1.01-.6,1.12-1.24-.84-.72-1.66-1.71-2.36-3.17h0c-.81-1.78-1.43-4.22-1.51-7.63-.06-2.25.7-5.05,1.5-8,.82-2.93,1.82-4.67,2.15-7.59.16-1.45.1-2.68-.45-3.38.51.06,1.63,2.06,1.86,3.22.4,2.01.59,2.98.37,6.56-.13,1.8-.21,3.8-.21,5.82h0c.06,1.93.66,3.82,1.73,5.29.91,1.3,2.22,2.31,3.87,2.84.85-.59.8-1.55,1.02-2.49l1.05,1.25c.51.55,1,1.05,1.46,1.47,1.26,1.23,2.22,2.15,2.2,3.59,7.59,2.49,9.93,8.51,10.89,14.55l.23,1.38c.19,1.44.31,2.87.43,4.24.43,4.36.77,8.01,2.89,8.8,1.07.41,1.37.35,3.89.96,1.06.25,2.28.49,3.71.73l-32.46-72.83.1-.03c-1.62-.86-3.16-1.34-4.46-.71-1.38.69-.96,3.19-.51,6.09.25,1.43.51,2.95.6,4.4.21,4.98-1.35,9.58-10.96,10.05h-.12c.88,7.32,2.13,14.52,3.76,21.59,1.7,7.52,3.85,14.93,6.41,22.17,2.52,7.17,5.41,14.16,8.75,20.96.22.45.46.98.74,1.46h0Z"/><path class="r" d="M136.13,175.49c-.29-.05-.56-.1-.81-.14l-32.02-71.83c.19.1.35.21.55.33.19.15.45.33.68.45l31.61,71.18h0Z"/><path class="s" d="M143.11,176.48c-1.79-.26-3.51-.46-5.09-.7l-9.53-21.45c1.58-1.07,3.18-1.99,4.83-2.77.93-.46,1.87-.82,2.81-1.19-.31,3.11-.05,7.95,1.34,13.2,1.09,4.26,2.91,8.78,5.64,12.92h0Z"/><path class="s" d="M152.08,177.43c-2.32-.26-4.61-.49-6.79-.71-3.12-4.28-5.07-9.08-6.23-13.57-.37-1.28-.64-2.52-.84-3.74,1.47-.62,3.3-1.25,5.36-1.75l8.5,19.77h0Z"/><path class="r" d="M154.74,177.64c-.29-.02-.56-.06-.82-.06l-8.66-20.3c.23-.02.47-.06.72-.1l8.76,20.46h0Z"/><path class="s" d="M160.59,178.06c-1.34-.11-2.74-.19-4.02-.29l-8.93-20.81c3.22-.42,6.92-.41,10.95.37.69.1,1.38.26,2.04.45h-.44l.4,20.29h0Z"/><path class="r" d="M163,178.18c-.24,0-.53-.02-.79-.02l-.41-20.06c.56.15,1.17.33,1.72.54l-.94.02.42,19.53h0Z"/><path class="s" d="M174.08,178.52c-1.85-.04-3.7-.04-5.58-.11-1.27-.04-2.59-.07-3.87-.15l-.44-19.38c5.08,1.79,10.59,4.85,16.32,9.82l-6.43,9.82h0Z"/><path class="r" d="M176.91,178.52h-.92l5.74-8.72c.19.16.4.32.57.51l-5.38,8.21h0Z"/><path class="s" d="M189.5,177.9c-3.38.35-6.96.5-10.66.57l4.66-7.04c1.97,1.93,3.97,4.08,6,6.46h0Z"/><path class="s" d="M200.08,176.22c-2.49.64-5.26,1.1-8.2,1.46-2.56-8.26-3.01-12.34-3.27-15.05,3.86,3.21,7.06,6.66,9.39,10.07.81,1.16,1.51,2.38,2.08,3.53h0Z"/><path class="r" d="M202.08,166.98c-.53.82-.88,1.72-.98,2.62-.08.93.08,1.81.54,2.56.38.59.92,1.03,1.67,1.34l.64.23c.03-.31-.05-.67.1-.96.32-.62.66-.7,1.01-.53.31.19.51.46.33,1-.2.82-1.21,1.83-3.1,2.39-.2.07-.41.1-.59.18-.92-2.72-1.02-5.59-.5-8.8l1.02-1.12,25.59-27.6c-.1.46-.18.91-.28,1.34l-22.15,23.85c-1.05,1.13-2.47,2.25-3.3,3.5h0Z"/><path class="s" d="M210.98,187.72c-.65-.44-3.09-1.84-4-2.26,2.5-1.86,4.59-4.44,6.07-7.16.78-1.43,1.34-2.89,1.46-4.22.13-1.49-.18-2.82-1.23-3.85-.23-.21-.69-.47-.97-.68,1.52-.76,3.04-1.88,4.08-3.3,1.47-1.97,4.46-9.37,4.09-13.14-2.04,4.03-4.34,5-7.2,7.04-1.71,1.25-3.85,2.49-5.74,3.37l19.32-20.86c-.05.32-.13.61-.2.92-1.73,7.52-3.84,14.93-6.39,22.17-2.53,7.17-5.42,14.16-8.79,20.96-.17.33-.33.68-.49,1.01h0Z"/><path class="i" d="M131.84,186.27c5.45,2.61,8.69,4.05,11.04,4.72,2.04.6,3.39.57,5.01.23.24-.17.35-.62.13-.78-.13-.42-.93-.55-1.17-.58l-1.57-.34,1-1.23c1.06-1.35,2.32-2.94,4.48-3.74,2.12-.81,5.04-.74,9.28,1.28,2.24,1.11,4.01,2.15,5.54,2.99,3.48,2.04,5.49,3.18,9.24,2.63.08-.04.12-.07.18-.09-.29-.19-.78-.29-1.39-.19l-.93.17-.14-.93c-.18-.78,0-1.62.38-2.43.39-.86,1.09-1.68,1.97-2.33.85-.68,1.97-1.17,3.22-1.44,1.91-.35,4.16-.14,6.64,1.11,3.31,1.63,6.05,2.89,8.15,3.67,1.82.68,3.11,1.01,3.87.95-.05-.08-.13-.19-.27-.28h.02c-.41-.33-1.01-.53-1.53-.58l-.76-.02-.16-.77c-.12-.63.08-1.25.54-1.83.93-1.23,2.65-1.88,4.12-2.18"/><path class="r" d="M114.69,171.07c-.27.19-.52.35-.76.51.39.45.76.93,1.13,1.35.26-.2.51-.39.8-.63-.4-.39-.76-.77-1.17-1.23h0Z"/><path class="r" d="M116.85,169.61c-.28.2-.54.38-.81.57.39.39.72.76,1.11,1.11.25-.23.55-.45.8-.66-.35-.33-.72-.68-1.1-1.03h0Z"/><path class="r" d="M118.76,168.06c-.18.19-.39.37-.64.56.38.31.72.66,1.01.94.26-.18.47-.4.65-.6-.31-.26-.65-.56-1.01-.89h0Z"/><path class="r" d="M114.55,167.37c-.28.16-.5.34-.76.48.34.38.72.76,1.11,1.13.27-.16.51-.35.76-.53-.35-.33-.72-.69-1.06-1.04,0,0,0-.05-.05-.05h0Z"/><path class="r" d="M116.56,165.9c-.25.18-.44.36-.64.51.35.36.7.71,1.05,1.05.22-.16.41-.35.64-.53-.38-.33-.72-.68-1.05-1.04h0Z"/><path class="r" d="M114.92,164.17c-.29.18-.55.35-.84.48.18.19.4.41.61.6.25-.16.48-.36.72-.57-.16-.16-.32-.34-.5-.52h0Z"/><path class="r" d="M121.37,171.61c.25-.3.49-.61.8-.92-.07-.23-.13-.47-.19-.71-.17-.03-.79-.02-.85-.06-.26.26-.52.5-.78.77.55.5.91.84,1.03.92h0Z"/><path class="r" d="M119.29,173.55c.33-.22.67-.51,1.02-.82-.34-.28-.72-.59-1.18-.96-.27.23-.54.47-.84.69.4.47.76.86,1.01,1.09h0Z"/><path class="r" d="M116.72,174.97c.43-.18.8-.32,1.19-.55-.26-.23-.56-.57-.94-.92-.3.23-.61.47-.9.68.24.36.5.6.65.79h0Z"/><path class="r" d="M114.99,177.17c0,.19-.27.54-.16.59l1.29.54-1.09.87s0,.35,0,.74c0,.02.03.03.03.08,1.3-.51,2.66-1.36,3.92-2.31,1.89-1.39,3.5-2.99,4.42-4.17-.23-.32-.46-.66-.64-1.05-1.06,1.24-2.03,2.17-3.14,2.89-1.25.8-2.66,1.37-4.63,1.83h0Z"/><path class="r" d="M114.45,175.35c.06.06.14.17.18.24.14-.07.27-.07.39-.1-.08-.13-.16-.24-.26-.37-.14.08-.22.15-.31.23h0Z"/><path class="r" d="M112.34,172.84c.09.17.21.26.35.32h0c.35.27.68.47.76.91.1-.08.16-.1.24-.21-.35-.47-.79-1-1.24-1.51-.14.06-.09.35-.11.5h0Z"/><path class="r" d="M112.9,170.3c.18-.14.39-.26.64-.39-.46-.46-.84-.88-1.23-1.28-.21.1-.4.19-.59.25.38.45.77.94,1.18,1.41h0Z"/><path class="r" d="M108.04,178.56c.12.14.24.26.35.34.22.23.4.39.59.62,0-.04.06-.12.06-.18.13-.6.13-1.25,0-1.89-.06-.13-.1-.3-.16-.46-.18.49-.4,1.01-.83,1.58h0Z"/><path class="r" d="M109.54,175.07c.51.61.87,1.28,1.05,1.98.21.9.18,1.83.02,2.6-.15.82-.5,1.53-.82,1.96-.03.03-.08.06-.1.09l.31.31-.05.06-.1.11c-.33.33.51,1.71,1.37,2.82.6-.84,1.19-1.81.57-2.81l-.91-1.47,1.67.24c.68.07.83-.07.87-.25.03-.21-.05-.5-.07-.78,0-.42.23-.89.49-1.3-.26-.34-.7-.76-.64-1.21.04-.5.56-1.33-.93-1.5l-.72-.26.18-.74c.16-.34.1-.39.06-.39h0c-.34-.24-.74-.5-1.05-1.31l-.05-.39.17-1.33c-.06.01-.1.06-.12.09-.51.36-1.03.72-1.4,1.13-.8.91.02,1.95.21,2.32h0Z"/><path class="r" d="M111.9,165.61c0,.14,0,.23-.02.33.22.19.46.43.75.72.21-.11.45-.29.74-.47-.31-.25-.58-.54-.84-.81-.22.1-.43.18-.62.23h0Z"/><path class="r" d="M120.82,160.34c-.14.05-.51.33-.63.36.11.11.53.65.76.58,0-.1-.14-.84-.14-.94h0Z"/><path class="r" d="M117.43,162.8c-.15-.13-.28-.25-.44-.39-.22.26-.47.54-.76.8.13.15.27.27.41.42.28-.27.59-.57.79-.84h0Z"/><path class="r" d="M119.62,164.91c-.33-.32-.68-.63-1.03-.98-.22.29-.53.6-.84.89.35.34.67.72,1.04,1.07.34-.32.6-.66.83-.97h0Z"/><path class="r" d="M121.47,166.54c-.22-.17-.45-.33-.64-.51-.25.31-.55.63-.87.95.35.27.64.56.93.82.27-.35.5-.68.65-.97-.05-.07-.05-.18-.07-.29h0Z"/><path class="r" d="M113.27,162.33c-.35.22-.75.38-1.21.41.23.21.49.45.78.73.31-.18.64-.33.99-.53-.22-.21-.38-.4-.56-.62h0Z"/><path class="r" d="M114.61,160.52c-.09.18-.2.38-.3.53.06.1.14.18.24.27.18.23.37.44.6.68.23-.21.48-.42.64-.68-.44-.36-.87-.66-1.18-.81h0Z"/><path class="r" d="M115.46,159.18c1.43.79,3.19,2.57,4.69,4.01.4.37.77.73,1.13,1.05-.05-.47-.12-.93-.16-1.41-2-.43-2.48-1.78-2.7-2.35,0-.03.08.12.05.03l1.87-1.39c-.84-.51-3.89-.47-4.88.05h0Z"/><path class="r" d="M116.72,152.77c.76,1.48,1.47,2.74,2.04,4.38.42.03,1.07.08,1.55.37-.31-1.36-.7-2.79-1.25-4.04-.87-.07-1.63-.37-2.34-.7h0Z"/><path class="r" d="M114.37,149.79c.92.63,2.65,1.42,3.75,1.81-.55-.96-1.29-1.87-2.13-2.65-.31.46-.89.73-1.62.85h0Z"/><path class="r" d="M111.04,145.95c-.46,1.13-1.53,1.52-2.91,1.91.29.04.56.08.92.1h0c1.44.08,2.89.27,4.32.27,3.39-.03-1.65-2.03-2.32-2.28h0Z"/><path class="r" d="M98.71,125.05c-.3,1.06-.56,2.12-.84,3.13-.78,2.85-1.51,5.49-1.46,7.55.06,3.13.61,5.36,1.37,6.95h0c.54,1.15,1.23,2,1.85,2.57,1.44-.6,2.4-.53,3.3-.14h.02c-1.03-1.56-.63-2.75.85-3.59-1.39-.7-2.51-1.67-3.38-2.89-1.3-1.77-1.95-3.96-2.02-6.23h0c-.02-2.15.07-4.14.2-5.92.06-.51.06-.98.1-1.43h0Z"/><path class="r" d="M102.42,146.74c-.69-.04-1.39.05-2.2.4-.26,1.1-1.16,1.67-1.8,2.02.04.1.07.23.14.36.43,1.04.75,1.8,1.09,2.3-.03-.93.11-1.7.34-2.19.24-.43.54-.7.93-.82.42-.16.83-.12,1.25.1.4.17.79.52,1.13,1.05.47-.5,1.13-.64,2.27.12.14-.15.39-.25.61-.33.32-.09.65-.09.97-.01.33.05.58.22.85.4.25.17.44.39.6.63.36-.22.73-.37,1.06-.46.33-.09.7-.1.96,0,.42.11.72.35.88.78.06.06.06.12.09.21,1.13-.1,1.63.47,1.88,1.25h0c.11.37.13.72.16,1.09.06.85.61.81.7,1.63.11,1.06-.89,1.82-1.76,2.23-3.39,1.77-8.8-.36-10,1.05.56-.04,1.22.19,1.18.89.23.58.24,1.49.4,2.12.22.92.36,1.54.75,2.08.12-.66.46-1.09.76-1.44.23-.26.43-.47-.15-1.44l-.76-1.24c2.57.03,4.19,1.11,6.44,1.46,1.25.38,1.77-.72,2.31-1.85.44-1.4,2.28-1.95,3.56-1.98-.48-1.5-2.02-4.5-2.86-5.37-1.25-1.38-3.43-2.09-5.21-2.18h0c-2.67-.15-4.13-1.2-5.35-2.11-.41-.29-.8-.56-1.21-.74h0Z"/><path class="r" d="M106.96,146.74c.93,0,1.38-.64,1.35-1.34,0-.72-.7-1.23-1.42-1.23-.7-.02-1.36.41-1.44,1.15-.07.68.56,1.42,1.5,1.42h0Z"/><path class="r" d="M104.82,142.61c-.97.54-1.41,1.96-.36,2.84-.18-1.68,1.33-2.4,2.35-2.4,1.36-.02,2.88,1.12,2.63,2.65,1.39-1.53-1.25-3.61-2.15-4.47-.48.57-1.75,1.03-2.47,1.38h0Z"/><path class="r" d="M111.93,153.2c0-.09-.02-.14-.02-.18h0c-.03-.1-.27-.16-.9.09l-.81.27c.55-.03,1.12-.08,1.74-.17h0Z"/><path class="r" d="M112.55,155.37c-.3-.28-.44-.64-.49-1.05-1.93.32-3.5.18-4.85.05-1.33-.18-2.39-.26-3.17.19-.06.02-.1.06-.23.13h0c-.24.16-.57.38-1.01.65.54-.16,1.13-.25,1.72-.27,1.8-.1,2.83,0,3.98.11,1.03.14,2.14.24,4.04.19h0Z"/><path class="r" d="M191.27,180.71c1.12-.11,2.14-.21,3.06-.31,6.86-.7,10.89-2.83,12.61-4.82.55-.7,1.26-2.64.09-3.35.24.39.2,1.15.12,1.43-.35,1.4-1.62,3.04-4.33,3.83-3.31,1.02-7.24,1.76-11.6,2.2l.06,1.02h0Z"/><path class="r" d="M188.9,180.91c.2,0,.42-.02.6-.04l-.06-1c-.19.04-.35.04-.55.06v.97h0Z"/><path class="r" d="M172.62,181.77c5.48-.07,10.4-.38,14.5-.69v-1c-4.61.33-9.54.43-14.5.37v1.32h0Z"/><path class="r" d="M170.22,181.8h.63l-.04-1.36c-.2-.04-.41-.04-.62-.04l.03,1.39h0Z"/><path class="r" d="M156.76,181.27c2.75.22,5.45.35,8.04.45,1.26,0,2.43.05,3.64.08l-.04-1.46c-3.95-.08-7.88-.31-11.7-.59l.07,1.52h0Z"/><path class="r" d="M154.26,181.06c.24.02.46.04.7.04l-.08-1.49c-.2,0-.43-.04-.64-.06l.02,1.51h0Z"/><path class="r" d="M145.45,179.95c2.36.37,4.72.66,7.03.93v-1.47c-2.5-.21-4.87-.45-7.13-.72l.1,1.26h0Z"/><path class="r" d="M143,179.55c.19.06.38.08.57.09l-.03-1.17c-.21-.03-.43-.07-.61-.08l.07,1.15h0Z"/><path class="r" d="M113.06,185.16c-.12.23-.27.4-.4.62.56.95,1.41,1.91,2.4,2.7,1.21,1.01,2.59,1.8,3.89,2.16,1.65-.45-1.8-2.34-2.19-2.55-1.42-.75-2.68-1.7-3.7-2.92h0Z"/><path class="r" d="M125.41,177.17c-1.43,1.86-3.24,3.62-5.41,5.01-1.58,1.05-3.36,1.88-5.28,2.43.8.8,1.75,1.5,2.84,1.97,1.08-1.54,4.79-4.81,14.28-.31,5.45,2.61,8.69,4.05,11.04,4.72.43.14,5.89,1.27,5.09-.49-.05-.12-.13-.22-.34-.35h0c-.6-.39-1.63-.47-2.35-.63,1.57-1.96,3.02-4.06,5.48-4.97,2.12-.81,5.04-.74,9.28,1.28,2.24,1.11,4.01,2.15,5.54,2.99,3.48,2.04,5.33,3.03,8.88,2.89,1.47-.8-1.27-.9-1.78-.36l-.14-.93c-.18-.78,0-1.62.38-2.43.39-.86,1.09-1.68,1.97-2.33,2.91-2.18,6.72-1.91,9.85-.34,3.31,1.63,6.05,2.89,8.15,3.67,1.82.68,3.11,1.01,3.87.95-.05-.08-.13-.19-.27-.28h.02c-.72-.56-1.47-.56-2.28-.6-.89-2.78,1.91-4.25,4.5-4.78,1.64-.33,3.75-.31,6.04.34l-.05-.04c1.91-.89,4.93-4.01,6.66-7.21.63-1.22,1.09-2.43,1.2-3.48.09-.91-.14-2.16-.74-2.86-.53-.65-1.95-2.29-4.66-2.18.24-.33,1.47-.34,2-.33,2.54.05,4.22-1.5,5.66-3.43,1.36-1.86,2.48-4.23,3.07-6.28-.98.97-2.32,2-3.48,2.84-3.01,2.17-6.34,3.9-8.5,4.65-1,.37-1.87,1.31-2.25,1.76-.59.81-1.05,2.47-.25,3.26,1.19-1.62,4.07-1.49,5.42.56,1.23,1.82.33,4.05-.47,4.95-2.01,2.28-6.39,4.79-13.86,5.54-6.06.63-16.87,1.67-29.78,1.28-12.03-.36-25.87-1.98-39.34-6.48h0Z"/><path class="r" d="M123.04,176.32c-.88.89-2,1.83-3.12,2.71-1.62,1.23-3.44,2.26-5.2,2.78-.21.37-.54.64-1.12.76.06.21.08.41.08.6,1.97-.47,3.84-1.29,5.44-2.36,1.79-1.18,3.35-2.65,4.66-4.22-.27-.07-.51-.19-.74-.27h0Z"/><path class="r" d="M124.6,174.6c-.05.05-.1.1-.16.18,5.55,1.94,11.17,3.4,16.73,4.45l-.03-1.07c-4.52-.58-8.33-1.23-11.13-1.83-1.87-.4-3.68-1.13-5.41-1.73h0Z"/><path class="j" d="M159.71,110.31c1.09-5.35,3.29-10.99,6.27-16.34,3.19-5.83,7.23-11.3,11.6-15.83-13.17-2.96-26.32-3.45-38.64-1.48-11.54,1.85-22.36,5.93-31.77,12.22,9.83-.02,19.22,2.18,27.51,5.48,10.78,4.29,19.64,10.46,25.04,15.96h0Z"/><path class="t" d="M206.41,196.34c-10.02,2.08-19.26.56-22.06-2.01-9.74,6.3-21.37,3.16-27.31.39-.86.6-2.43,1.71-3.56,2.1-11.19,3.52-19.59-2.7-25.42-2.78,2.08,4.69-12.03,5.31-17.32,4.35.56.93,1.13,1.88,1.71,2.84,5.61.43,15.33.53,18.12-4.11,10.96,3.82,18.53,4.19,26.48.6,9.19,3.06,17.01,4.04,27.19-.81,6.43,3.9,14.77,2.8,20.67,2.04.5-.87,1.02-1.73,1.5-2.6h0Z"/><path class="s" d="M84.62,112.45c-.3-4.24-.49-8.49-.57-12.73,2.67-.93,5.33-2.01,7.91-3.24-1.05,1.97-.64,5.04-.24,8.12.36,2.55.72,5.12.2,6.81-.57,1.79-2.34,2.58-6.84,1.16l-.46-.12h0Z"/><path class="s" d="M96.25,94.31c.35-.19.7-.39,1.04-.6,2.12-1.15,4.19-2.35,6.19-3.64l.09.31c.39.47,1.19,1.18,2.16,2,1.73,1.46,4.01,3.36,5.18,5.18h0c.97,1.42,1.18,2.77-.23,3.72h0c-1.94,1.31-4.35-.73-6.93-2.84-2.35-1.97-4.84-4.03-7.5-4.14h0Z"/><path class="s" d="M112.4,83.83c1.73-1.31,3.46-2.66,5.16-3.98,5.19-4.08,10.43-7.99,15.78-11.8l.14,8c-7.44,1.66-14.52,4.25-21.09,7.78h0Z"/><path class="r" d="M134.94,66.93c.17-.08.34-.19.53-.31v9.03c-.14,0-.27.05-.36.08l-.17-8.8h0Z"/><path class="s" d="M137.06,65.61c1.66-1,3.39-1.84,5.29-2.25v11.17c-1.2.16-2.45.34-3.65.53-.56.1-1.09.16-1.63.27v-9.72h0Z"/><path class="r" d="M143.94,63.11c.19,0,.35,0,.54,0v11.22c-.18,0-.35.02-.54.03v-11.25h0Z"/><path class="s" d="M146.08,68.32c.35.51.69.96,1.11,1.38h0c.78.78,1.7,1.42,2.75,1.85,2.03.85,4.35.85,6.4,0,.6-.24,1.12-.56,1.62-.9.53.34,1.08.66,1.63.9.28.11.58.22.84.3l.06,2.17c-4.88-.29-9.7-.25-14.42.14v-5.85h0Z"/><path class="r" d="M162.08,72.16c.13,0,.28.04.47.04l.03,1.97c-.17,0-.3,0-.46-.02l-.04-1.99h0Z"/><path class="s" d="M164.15,72.1c.64-.08,1.29-.31,1.91-.54,1.01-.44,1.96-1.07,2.75-1.85h0c.77-.8,1.41-1.73,1.83-2.78.5-1.19.77-2.55.61-3.83.58,0,1.14.02,1.72.13,2.93.47,5.48,1.97,7.96,3.65,5.98,4.09,11.79,8.49,17.5,12.97,6.5,5.05,13.04,9.91,20.28,13.86,3.28,1.83,6.7,3.46,10.2,4.84l-8.81,12.11c-6.73-6.19-14.46-11.49-22.75-15.55-8.08-3.95-16.27-6.78-25.06-8.14,2.32-3.17,4.83-6.14,7.45-8.75l1.05-1.04-1.42-.32c-5.06-1.22-10.14-2.07-15.19-2.53l-.03-2.24h0Z"/><path class="r" d="M230.45,99.19c.27.06.47.18.68.25l-22.35,31.31c-.24-.13-.43-.32-.68-.45l12.67-17.78,1.05-.25-.52-.5,9.15-12.58h0Z"/><path class="s" d="M231.93,101.16c-.19,6.73-.64,13.42-1.41,20.07-.57,4.71-1.26,9.38-2.14,14.03l-26.54,28.67c.43-1.73,1.06-3.53,1.75-5.28,3.89-9.59,10.74-18.31,13.42-20.2l.81-.57-.74-.7c-1.91-1.76-4.26-3.6-6.97-5.51l21.82-30.51h0Z"/><path class="t" d="M201.74,204.19c-.39.58-.78,1.15-1.19,1.75-.09.17-.21.36-.31.56-4.31.15-8.41.85-17.03-1.42-3.82,2.09-17.81,5.08-25.81,1.47-7.88,3.96-21.07,1.91-24.9-1.11-6.17,3.27-11.04,2.8-15.67,2.67-.47-.72-.94-1.46-1.45-2.17h0c5.29-.21,11.05.02,16.96-3.01,12.66,5.93,19.37,2.63,24.98.92,4.88,1.48,12.8,4.31,26.32-1.43,8.88,2.66,13.36,1.95,18.1,1.78h0Z"/><path class="t" d="M183.17,228.47c-.52.58-1.05,1.19-1.67,1.77-7.04-2.89-20.94-2.02-23.32-.58-2.65-1.26-13.89-2.49-22.83,1.54-.6-.64-1.17-1.26-1.77-1.88,6.16-3.45,20.79-4.58,24.56-1.96,3.21-2.8,20.91-1.95,25.03,1.1h0Z"/><path class="t" d="M176.91,235c-.58.57-1.17,1.16-1.79,1.73-4.31-1.59-12.14-1.58-16.81-.08-5.66-.99-11.06-1.17-16.58.9-.63-.6-1.28-1.22-1.92-1.86,7.87-2.73,14.7-2.08,18.51-.95,3.39-1.17,10.34-1.86,18.6.25h0Z"/><path class="t" d="M170.01,241.44c-1.09.94-2.2,1.91-3.34,2.85-1.84-.85-6.9-2.05-8.7-.14-2.72-1.78-6.99-.77-8.57.19-1.04-.85-2.08-1.74-3.07-2.62,2.86-1.35,6.89-2.58,11.73-.45,4.74-2.13,9.02-.91,11.95.18h0Z"/><path class="r" d="M109.21,90.55c-1.05-.04-2.08-.04-3.13,0,.23.16.45.37.72.58,1.78,1.52,4.13,3.53,5.48,5.58h0c1.41,2.15,1.71,4.28-.72,5.91h0c-2.9,1.99-5.8-.39-8.85-2.92-2.74-2.25-5.62-4.65-8.39-3.41-1.94.89-1.47,4.48-1,8.13.39,2.71.74,5.45.12,7.48-.76,2.5-3.23,4.08-8.57,2.44.21,1.95.42,4.14.6,6.12,8.08-.11,9.73-4.48,9.53-8.43-.06-1.44-.27-2.88-.53-4.26-.56-3.56-1.09-6.58,1.38-7.81,2.86-1.36,5.83.55,8.84,2.52,3.13,2.02,6.31,4.05,8.86,1.74,2.94-2.63.89-5.33-1.17-8.05-1.28-1.68-2.78-3.82-3.18-5.63h0Z"/><path class="s" d="M127.2,117.9l-10.84-26.77c-1.76-.22-3.54-.42-5.34-.5.3,1.45,1.47,3.01,2.65,4.54,2.53,3.34,5.01,6.65.96,10.28-2.49,2.28-5.09,1.68-7.68.3l10.33,23.22c1.37-2.47,2.83-4.38,4.58-6.37,1.64-1.79,3.44-3.37,5.34-4.69h0Z"/><path class="r" d="M129.31,116.54l-10.07-24.95c-.35-.08-.69-.12-1.05-.17l10.4,25.55c.21-.16.47-.29.72-.43h0Z"/><path class="p" d="M140.13,98.56c-1.42,1.81-2.73,3.94-3.96,6.6-1.23,2.59-2.58,5.95-3.7,9.6.97-.39,2-.74,3.02-1.08,6.52-2.32,13.93-2.86,21.55-2.19.56.04,1.14.1,1.73.16-4.26-4.32-10.71-9.15-18.65-13.09h0Z"/><path class="s" d="M130.65,115.54c1.3-4.44,2.62-8.07,4.02-11.07,1.29-2.74,2.56-4.77,4.01-6.6-1.54-.69-3.05-1.38-4.62-1.98-4.08-1.62-8.44-2.98-12.95-3.95l9.53,23.61h0Z"/><path class="m" d="M189.51,122.12c-1.62-.73-3.2-1.38-4.77-2.02-7.66-3.04-15.86-5.41-23.91-6.54l-.04.28-.31-.35c-1.19-.17-2.38-.27-3.59-.39-13.17-1.15-25.52,1.42-33.86,10.59-1.86,2.06-3.53,4.44-4.95,7.18l6.61,14.87c.96,2.19,2.05,4.48,3.24,6.96,1.54-.99,3.09-1.86,4.7-2.64,12.42-5.92,26.3-4.61,38.52.29,12.15,4.88,22.62,13.23,28.17,21.4-.25-4.35.95-9.15,2.78-13.76,3.67-8.99,9.95-17.4,13.17-20.25-4.53-4.01-11.34-8.54-19.39-12.59-2.07-1.07-4.2-2.08-6.39-3.04h0Z"/><path class="s" d="M199.54,125.2c2.53,1.37,4.95,2.79,7.18,4.2l11.51-16.1c-5.66,2.15-11.78,6.72-16.41,10.19-.8.61-1.58,1.19-2.28,1.72h0Z"/><path class="o" d="M171.21,88.54c-1.37,2.02-2.68,4.09-3.84,6.2-1.32,2.44-2.51,4.92-3.48,7.37-1.12,2.95-2.01,6.12-2.81,9.83,10.75,1.52,21.78,5.25,31.45,9.76,1.84.78,3.7,1.59,5.61,2.47.81-.55,1.71-1.26,2.69-2,4.94-3.68,11.58-8.67,17.71-10.69-6.46-5.9-13.91-10.95-21.92-14.88-8.04-3.95-16.68-6.72-25.42-8.06h0Z"/><path class="n" d="M137.82,149.76c-.3,1.85-.3,4.69.15,7.98,4.58-1.84,11.94-3.75,20.91-2.02,8.99,1.71,19.56,7.05,30.61,19.72-1.99-7.09-2.32-10.63-2.52-13.09-.06-.43-.09-.84-.1-1.13-4.75-3.66-10.32-6.96-16.31-9.35-10.38-4.14-21.99-5.67-32.75-2.11h0Z"/><path class="r" d="M169.31,217.39c-.23.41-.47,1.08-.66,1.78-.18.72-.38,1.23-.47,1.42-.14.37-.35.57-.54.57l-1.82.06c-.2,0-.44-.1-.67-.23-.19-.2-.25-.51-.29-.88l-.1-5.28c-.02-.61.17-1.12.48-1.45.43-.39,1-.62,1.83-.64l5.52-.1c.81-.05,1.42.16,1.87.56.35.28.56.79.57,1.4l.14,6.39-2.78.08-.1-6.24c-.04-.23-.14-.45-.27-.55-.13-.16-.43-.24-.79-.24l-2.74.08c-.34,0-.67.08-.8.27-.1.08-.15.35-.15.53l.1,4.5c.14-.5.32-1.03.42-1.42.19-.61.46-1.16.59-1.51.35-.88.89-1.31,1.58-1.37.41,0,.76.14,1.02.39.27.26.43.6.43.96,0,.38-.14.74-.38.96-.27.23-.62.42-1.04.42-.21,0-.36-.02-.61-.12-.1-.07-.27-.22-.35-.31h0Z"/><path class="r" d="M160.63,212.89c.8-.02,1.42.18,1.82.57.39.29.6.82.6,1.39l.14,6.42-2.77.07-.14-6.25c0-.26-.1-.47-.2-.58-.17-.13-.49-.23-.84-.23l-2.45.06c-.68.04-1.02.24-1.02.56v.26h1.02s.02.58.02.58c-.31,0-.57.15-.68.19-.08.16-.16.42-.16.68l.08,4.83h-2.76s-.09-4.3-.09-4.3c0-.23.03-.47.09-.67.09-.23.29-.43.6-.58l-.99.03-.02-.79c0-.65.19-1.18.5-1.49.42-.43,1.01-.64,1.86-.67l5.41-.11h0Z"/><path class="r" d="M145.15,217.53c.4.07.93.45,1.55,1.02.64.6,1.38,1.21,2.07,1.85l-.17-7.24,2.74-.05.18,7.51c0,.3-.1.6-.27.76-.16.08-.43.14-.64.16l-1.42.02c-.36,0-.79-.23-1.34-.65-.44-.4-.96-.9-1.38-1.34-.53-.53-.97-.86-1.3-.97l.03,1.86c.02.41-.14.76-.44.96-.2.14-.58.26-.93.27l-1.15.02c-.7.03-1.24-.1-1.62-.33-.41-.39-.7-1.02-.7-1.81-.03-.63.17-1.19.47-1.54.4-.46.88-.74,1.51-.74v-1.28s-.27.08-.27.08c-.45,0-.91-.14-1.18-.34-.33-.24-.5-.6-.5-1.01-.02-.36.13-.75.43-1.01.31-.27.69-.42,1.13-.44l1.23-.02c.59,0,1.04.1,1.37.43.31.28.53.75.53,1.25l.06,2.57Z"/><path class="q" d="M169.74,216.47c0,.16.07.32.1.43.12.08.27.14.4.14s.29-.1.35-.19c.1-.1.24-.25.24-.36-.04-.14-.08-.29-.19-.39-.11-.1-.26-.16-.42-.16-.1,0-.23.06-.32.16-.14.13-.17.34-.17.42v-.06h0Z"/><path class="q" d="M141.37,219.6c0,.49.14.91.35,1.02.15.06.39.09.72.09l-.06-2.4c-.27,0-.5.1-.65.24-.21.21-.37.62-.35,1.07v-.02h0Z"/><path class="q" d="M141.58,214.73c.03.2.12.35.19.44.14.11.33.16.53.16.23,0,.41-.08.54-.17.16-.1.23-.27.23-.47,0-.14-.1-.31-.18-.41-.19-.08-.38-.16-.59-.16s-.39.05-.52.16c-.1.1-.19.31-.19.45h0Z"/><path class="q" d="M156.52,260.45c-26.12-18.01-46.04-42.36-59.58-69.99-14.34-29.23-21.51-62.16-21.38-95.25v-1.89l1.84-.47c5.08-1.31,10.27-3.57,15.08-6.15,6.52-3.49,12.32-7.59,16.35-10.74,6.03-4.82,9.96-7.82,13.21-10.21,4.8-3.56,11.07-8.8,16.84-10.4,5.94-1.68,13.17-1.34,16.84,2.93,1.46,1.67,2.24,3.02,2.24,5.42,0,2.68-2.17,4.91-4.84,4.91s-4.83-2.24-4.83-4.91c0-1.28.5-2.46,1.3-3.35-4.73-2.07-10.96-.29-15,2.49-3.55,2.48-6.26,4.32-9.69,6.87-3.43,2.51-7.34,5.52-13.09,10.08-4.24,3.31-10.32,7.58-17.07,11.22-4.53,2.47-9.42,4.63-14.31,6.08.15,31.73,7.14,63.24,20.82,91.21,12.94,26.4,32.02,49.81,56.72,67.22,24.75-17.41,43.82-40.81,56.74-67.22,13.71-27.97,20.71-59.48,20.86-91.21-4.87-1.45-9.79-3.61-14.33-6.08-6.78-3.64-12.85-7.91-17.04-11.22-5.81-4.56-9.68-7.57-13.14-10.08-3.43-2.55-6.1-4.39-9.68-6.87-4.04-2.78-10.25-4.56-14.99-2.49.82.89,1.29,2.08,1.29,3.35,0,2.68-2.17,4.91-4.85,4.91s-4.83-2.24-4.83-4.91c0-2.4.77-3.76,2.23-5.42,3.68-4.27,10.93-4.61,16.85-2.93,5.78,1.6,12.04,6.84,16.86,10.4,3.24,2.39,7.18,5.39,13.23,10.21,4.01,3.16,9.83,7.25,16.34,10.74,4.81,2.58,10,4.84,15.07,6.15l1.83.47v1.89c.13,33.09-7.04,66.02-21.39,95.25-13.51,27.63-33.45,51.99-59.61,69.99l-1.46.99-1.45-.99Z"/><path class="k" d="M38.03,193.13c.27.49.3,1.02.1,1.63h0l-1.68,3.87-.31.79-.76-.36-3.39-1.54-.08-.04c-.65-.39-1.01-.94-1.12-1.55-.56.35-1.12.45-1.6.18h0s-.02,0-.03-.02h0l-.04.02h0l-3.49-1.72-.74-.34.39-.75,1.58-3.47c.32-.67.8-1.04,1.31-1.22-.23-.39-.27-.84-.08-1.31l.04-.04,1.6-3.61.37-.71.72.31,3.39,1.45h-.05c.15.02.26.08.39.18.43.25.66.65.8,1.12.45-.17.93-.27,1.45-.13l.17.07,3.52,1.8.68.37-.28.71-1.47,3.25-.04.05s-.07.12-.09.23c-.25.39-.72.66-1.22.77h0Z"/><path class="l" d="M36.16,191.48c.68.27,1.47.35,1.75-.03l-.03-.04.03.04,1.13-2.59-2.74-1.39c-.19-.02-.45.11-.72.28-.23.19-.45.47-.65.77t-.04.05c.04.05.08.07.14.12.84.69,1.22,1.76,1.13,2.8h0Z"/><path class="l" d="M33.36,187.98c.02-.08.09-.16.14-.24-.05-.02.02-.12.03-.12.14-.35.21-.72.21-1.04,0-.16-.04-.29-.11-.32,0,0-.04,0-.05-.03h-.06l-2.65-1.15-1.28,2.78c0,.11.1.23.23.39.28.26.58.5.92.66.04-.01.06.05.13.08.65-.75,1.57-1.1,2.49-1.02h0Z"/><path class="l" d="M30.1,190.47s-.04-.06-.04-.06c-.29-.12-.57-.19-.89-.2-.35-.08-.68.01-.81.3l-1.3,2.78,2.81,1.35h.07s-.03,0-.03,0h0c.2.12.68-.47,1.12-1.29-.82-.77-1.13-1.86-.92-2.89h0Z"/><path class="l" d="M32.56,194.15c-.15.35-.21.72-.24,1.03-.03.35.08.67.4.84l2.57,1.21,1.29-3.12h0c.05-.17-.03-.32-.24-.51-.21-.19-.5-.39-.83-.6h-.03c-.71.95-1.86,1.36-2.93,1.13h0Z"/><path class="l" d="M31.98,190.18c-.47.63-.38,1.55.22,2.08.64.49,1.52.35,2.03-.27.5-.64.39-1.56-.21-2.04-.62-.5-1.54-.42-2.04.23h0Z"/><path class="k" d="M277.77,193.41c-.23.5-.24,1.04.02,1.62h0l1.86,3.76.35.76.72-.39,3.34-1.72.1-.06c.62-.42.93-.99,1.01-1.59.56.31,1.16.38,1.61.1h0s.02,0,.02-.05h0l.02.03h0l3.41-1.89.7-.39-.4-.74-1.79-3.35c-.33-.66-.87-1.01-1.39-1.16.23-.39.23-.87.02-1.31l-.02-.04-1.83-3.54-.39-.68-.69.36-3.35,1.63h.07c-.12.04-.24.09-.38.21-.41.27-.6.68-.72,1.17-.47-.17-.95-.22-1.47-.07l-.17.08-3.42,1.99-.63.42.35.68,1.63,3.17h.03c.02.08.06.15.1.24.29.39.76.65,1.28.73h0Z"/><path class="l" d="M279.55,191.64c-.68.33-1.46.41-1.75.06l.02-.02-.02.02-1.28-2.52,2.63-1.52c.2-.04.47.07.74.24.27.16.49.45.72.72t0,.04s-.07.08-.12.14c-.8.72-1.12,1.8-.96,2.83h0Z"/><path class="l" d="M282.13,188.01c-.04-.1-.07-.14-.14-.22.02-.05-.02-.1-.05-.12-.15-.35-.24-.73-.27-1.02,0-.18.02-.29.11-.35,0,0,0-.02.02-.03h.06l2.58-1.28,1.45,2.72c.02.06-.08.2-.22.37-.26.27-.53.53-.88.74-.02-.02-.06.02-.11.08-.68-.72-1.62-1.02-2.55-.89h0Z"/><path class="l" d="M285.54,190.33s.03-.05.03-.05c.3-.15.57-.23.89-.27.35-.08.68-.02.83.27l1.46,2.7-2.73,1.48-.07.03.03-.02h0c-.19.16-.69-.41-1.18-1.21.76-.81,1.02-1.91.74-2.93h0Z"/><path class="l" d="M283.3,194.12c.14.33.25.72.28,1.02.05.35-.03.66-.34.86l-2.49,1.35-1.48-3.03h0c-.06-.18.02-.33.2-.54.18-.18.46-.43.8-.64h.02c.78.9,1.95,1.23,3.01.97h0Z"/><path class="l" d="M283.65,190.13c.51.58.46,1.5-.11,2.07-.59.53-1.49.44-2.02-.14-.54-.62-.49-1.52.09-2.03.59-.55,1.5-.51,2.04.1h0Z"/><path class="q" d="M38.47,222.75c-1.57.73-2.69.37-3.41-1.06l-.48-.99c.33-.35.64-.72.89-1.12.25-.4.47-.87.67-1.42.19-.5.37-.99.46-1.48.1-.5.12-.99.1-1.52l-1.34.65c-.74.35-1.5.4-2.27.13-.77-.26-1.36-.84-1.79-1.72-.45-.89-.54-1.81-.26-2.76.26-.94.87-1.65,1.89-2.11.44-.22.9-.34,1.32-.38.43-.03.9.04,1.42.22.88.32,1.65.96,2.31,1.87l2.56-1.22-.25-.24c-.39-.79-.46-1.6-.21-2.44.29-.81.83-1.41,1.59-1.76.77-.36,1.57-.39,2.41-.1.85.31,1.5.88,1.9,1.7.21.47.35.9.4,1.33.05.44,0,.87-.15,1.3-.25.81-.82,1.44-1.73,1.87l-5.28,2.52c.11.58.16,1.09.19,1.51,0,.2-.03.56-.07,1.04-.01.86-.19,1.69-.53,2.52l10.38-4.92,1.37,2.86-12.1,5.75ZM34.29,212.91l1.39-.68c-.18-.35-.45-.58-.84-.69-.3-.12-.63-.09-.95.06-.18.09-.33.24-.46.49-.05.18-.04.4.02.62.14.33.44.39.84.21ZM43.51,209.11c.27-.12.47-.29.56-.51.09-.22.07-.48-.01-.79-.14-.26-.34-.43-.55-.49-.24-.08-.51-.04-.84.07-.29.14-.48.33-.57.57-.07.17-.07.43.01.77.12.22.32.39.59.5.21.06.48.03.82-.11Z"/><path class="q" d="M57.17,233.53c-.71.45-1.48.55-2.36.31-.04.31-.14.58-.32.8-.19.21-.5.46-.92.74l-7.35,4.71-1.7-2.58,7.43-4.76c.12-.06.23-.14.31-.2.09-.06.18-.16.29-.24.08-.12.1-.27,0-.43-.1-.14-.26-.27-.48-.38-.25-.08-.56-.19-.98-.23-.17-.04-.46-.05-.88-.05-.24-.02-.68-.03-1.26-.03-.52.03-1.06.08-1.59.16-.56.07-1.21.19-1.99.35-.68.18-1.37.37-2.05.57-.67.22-1.27.43-1.79.69l-1.7-2.58,8.21-5.25-.27-.22c-.47-.71-.63-1.48-.51-2.31.18-.82.62-1.44,1.31-1.89.69-.44,1.46-.55,2.31-.37.84.19,1.53.64,2.01,1.38.27.43.45.84.55,1.25.11.42.11.84,0,1.27-.12.82-.61,1.48-1.39,1.98l-2.45,1.58c-.24.16-.86.45-1.9.9-.19.1-.43.2-.66.31-.24.1-.56.23-.96.34l1.42-.45c.92-.28,1.52-.43,1.77-.43s.53.02.8.04c.27.02.59.06.93.14.66.11,1.23.28,1.75.49.25-.37.54-.68.91-.91.69-.45,1.45-.55,2.29-.35.84.19,1.5.66,1.99,1.41.45.7.61,1.49.45,2.36-.1.82-.51,1.47-1.21,1.91ZM50.8,224.07c.23-.15.4-.34.47-.55.06-.24.02-.49-.11-.78-.16-.24-.35-.37-.59-.42-.23-.03-.5.03-.8.18-.27.16-.42.36-.48.62-.02.09-.02.19,0,.34.02.12.06.25.13.39.14.23.35.36.63.4.19.05.45-.02.76-.18ZM55.96,231.75c.23-.16.36-.35.41-.62.04-.19,0-.42-.16-.72-.15-.23-.35-.37-.57-.43-.21-.06-.44,0-.75.14-.24.16-.39.36-.42.6-.03.21.02.43.14.7.16.26.36.4.58.45.23.05.47,0,.76-.12Z"/><path class="q" d="M56.13,252.15l-1.99-2.34,8.03-6.6c.66-.55,1.08-1.17,1.19-1.86.02-.33-.03-.67-.14-.99-.1-.31-.27-.64-.51-.94-.47-.54-1.05-.84-1.76-.94-.66-.04-1.32.1-1.99.41l-2.07-2.44c.73-.37,1.41-.59,2.08-.7.66-.1,1.38-.08,2.11.04.72.13,1.37.37,1.97.71.57.37,1.13.86,1.65,1.5.53.64.96,1.27,1.18,1.88.26.62.35,1.28.34,1.99-.05,1.35-.62,2.5-1.74,3.43l-8.36,6.84Z"/><path class="q" d="M70.16,261.69c-.65.65-1.39.99-2.25.99s-1.64-.34-2.41-1.04c-.31-.31-.58-.63-.75-.99-.19-.36-.29-.76-.31-1.2-.07-.82.19-1.54.77-2.13.27-.27.55-.46.89-.61.34-.14.72-.23,1.13-.23.88.03,1.6.33,2.25.92l.27.23,3.26-3.39c.31-.31.51-.62.64-.94.14-.35.17-.72.14-1.13-.04-.78-.39-1.49-1.09-2.1-.59-.57-1.28-.91-2.09-1.04-.74-.09-1.44.07-2.15.46l-2.32-2.14c.64-.45,1.3-.76,1.96-.94.69-.17,1.42-.21,2.2-.11,1.54.21,2.98.91,4.26,2.14,1.29,1.21,2.04,2.51,2.26,3.89.22,1.39-.18,2.61-1.15,3.62l-5.53,5.74ZM68.23,260.14c.18-.19.27-.4.25-.63,0-.21-.1-.45-.31-.71-.23-.19-.42-.29-.66-.29-.23.01-.47.1-.69.29-.2.22-.3.43-.3.66.02.22.11.44.33.72.2.2.45.27.71.27.21,0,.42-.09.68-.31Z"/><path class="q" d="M79.17,251.42c-.86-2.33-2.17-4.32-3.91-6-1.17-1.13-2.57-2.18-4.2-3.09,1.05-1.07,2.33-1.58,3.85-1.58.74.03,1.45.18,2.09.46.68.28,1.28.69,1.86,1.23,1.34,1.31,2.07,2.79,2.14,4.47.08,1.7-.53,3.2-1.83,4.51ZM78.66,246.89c.14-.45.1-.95-.1-1.51-.12-.31-.26-.58-.4-.81-.14-.26-.32-.47-.55-.7-.43-.39-.87-.66-1.38-.82-.44-.21-.88-.21-1.34-.05.31.23.65.47.98.74.35.26.64.51.89.76.8.76,1.45,1.57,1.89,2.39Z"/><path class="q" d="M83.81,275.51l-2.54-1.79,6.82-9.39c.49-.7.6-1.17.3-1.43-.14-.09-.48.02-1.02.35l-10.48,7.41-2.52-1.78,5.7-7.86-.33-.1c-.7-.5-1.13-1.13-1.32-1.97-.14-.83.03-1.56.5-2.22.48-.66,1.17-1.05,2.02-1.18.88-.14,1.66.06,2.4.58.4.29.72.6.97.95.25.34.41.72.49,1.16.16.8-.02,1.6-.57,2.35l-1.24,1.72c-.27.35-1.07,1.27-2.44,2.76-.11.15-.25.31-.41.5-.16.16-.37.36-.65.57l1.7-1.52c1.17-1.1,1.9-1.72,2.16-1.88l2.89-2.19c1.15-.79,2.34-.74,3.58.14.92.64,1.47,1.43,1.69,2.36.23.94-.04,1.93-.78,2.94l-6.89,9.52ZM82.26,259.06c.18-.24.26-.49.23-.7-.02-.23-.14-.45-.4-.66-.22-.17-.46-.23-.68-.18-.23.05-.45.2-.68.43-.19.26-.27.52-.22.76,0,.08.04.18.12.31.06.13.16.23.26.33.23.16.47.21.73.15.2-.04.42-.17.64-.44Z"/><path class="q" d="M101.25,280.46c-.62,1.17-1.31,1.91-2.13,2.2-.81.29-1.95.04-3.42-.7l-6.75-3.42,2.41-4.58c.32-.63.75-1.03,1.25-1.22.46-.17.92-.19,1.44-.06-.24-.18-.43-.35-.59-.51-.15-.16-.28-.35-.39-.61-.3-.59-.27-1.2.05-1.82l1.23-2.37c.44-.81,1.06-1.33,1.88-1.59.8-.24,1.69-.13,2.61.34.39.21.73.45,1.01.74.27.28.45.65.62,1.09.27.78.23,1.57-.17,2.3-.35.7-.95,1.16-1.75,1.42-.81.26-1.62.2-2.38-.19-.21.39.11.81.97,1.26l1.63.82-1.17,2.22-1.55-.79c-.92-.47-1.58-.31-1.98.49l-1.19,2.24,3.02,1.52c.76.41,1.34.57,1.7.47.39-.04.73-.37,1.07-1l5.13-9.79,2.78,1.41-5.33,10.13ZM98.37,269.25c.14-.24.19-.5.1-.77-.06-.19-.24-.38-.5-.57-.27-.12-.5-.14-.73-.08-.22.08-.43.27-.62.53-.15.27-.17.54-.1.79.06.17.23.37.49.58.23.11.49.13.78.06.18-.08.39-.25.58-.55Z"/><path class="q" d="M114.26,289.53l-2.9-1.05,3.59-9.66c.31-.84.31-1.56.06-2.21-.14-.3-.35-.56-.59-.78-.27-.25-.58-.42-.97-.56-.66-.24-1.34-.23-1.98.06-.59.27-1.1.72-1.5,1.32l-3.02-1.11c.41-.64.91-1.19,1.42-1.62.52-.41,1.14-.74,1.84-.99.69-.25,1.38-.36,2.07-.35.7,0,1.43.17,2.2.46.81.29,1.44.64,1.98,1.05.53.4.97.93,1.3,1.55.66,1.2.74,2.49.23,3.82l-3.74,10.06Z"/><path class="q" d="M131.54,293.9l-2.85-.63-2.08-8.3c-.14-.47-.55-.77-1.17-.92-.54-.14-.88.14-1.05.84l-.35,1.45.31.13c.41.09.76.26,1.09.47.34.21.62.51.84.88.48.64.64,1.36.43,2.14-.16.75-.63,1.37-1.39,1.79-.73.43-1.53.55-2.41.35-.48-.11-.91-.29-1.27-.51-.36-.21-.65-.52-.88-.89-.47-.69-.62-1.49-.39-2.37l1-4.27c.2-.81.67-1.44,1.39-1.87.72-.41,1.52-.62,2.36-.6.1.03.18.04.3.05.1.02.19.02.34,0,.1-.02.24-.02.35-.02.13.03.26.03.39.05,1.65.39,2.62,1.27,2.94,2.69l.35,1.58c.02.12.06.26.06.49,0,.21.03.56.03,1.03l.06,1.26c.05-.31.09-.6.14-.88.02-.29.05-.55.07-.76,0-.21.06-.56.14-1.05.07-.5.13-.8.13-.92l.43-1.86c.2-.83.07-1.56-.39-2.22-.47-.66-1.21-1.11-2.2-1.33-.83-.2-1.64-.15-2.45.13-.73.26-1.28.75-1.66,1.46l-3.08-.71c.64-1.34,1.69-2.31,3.2-2.9,1.53-.59,3.09-.67,4.75-.31,1.73.39,3.07,1.18,4.08,2.28.47.54.8,1.12.95,1.73.18.6.18,1.25,0,1.94l-2.53,10.6ZM124.66,289.5c.06-.26.03-.49-.1-.67-.12-.2-.35-.36-.65-.47-.27-.06-.51,0-.72.11-.19.1-.34.28-.44.57-.05.29-.02.51.11.74.11.16.31.31.6.42.28.05.54.04.74-.08.18-.12.35-.32.45-.62Z"/><path class="q" d="M141.92,273.29c-.43,1.55-1.39,2.68-2.93,3.35-1.52.66-3.21.85-5.07.53-1.52-.26-2.73-.76-3.61-1.54-.89-.76-1.24-1.58-1.09-2.46.13-.74.51-1.31,1.17-1.73.6-.43,1.34-.57,2.22-.43.45.07.82.19,1.13.35.31.16.59.42.85.73.42.54.56,1.17.45,1.89-.03.23-.1.39-.16.55-.07.15-.19.31-.3.44,1.01.19,1.88.08,2.7-.27.76-.32,1.25-.95,1.54-1.94l3.1.53ZM133.03,273.7c.04-.22,0-.42-.12-.6-.11-.19-.33-.33-.6-.41-.23-.04-.42.02-.63.14-.18.13-.31.31-.4.59-.04.22.02.44.18.65.12.18.31.28.55.37.26.03.45-.02.64-.14.18-.14.32-.33.39-.6Z"/><path class="q" d="M149.48,292.35c-.15,1.32-.54,2.26-1.2,2.81-.67.56-1.81.75-3.45.56l-7.53-.84.6-5.13c.08-.7.32-1.23.73-1.59.35-.29.79-.49,1.31-.56-.31-.09-.54-.18-.72-.28-.2-.08-.39-.23-.59-.43-.49-.47-.68-1.03-.62-1.73l.32-2.64c.1-.92.5-1.62,1.17-2.15.68-.5,1.54-.7,2.57-.58.46.04.84.16,1.21.35.35.17.66.44.97.78.55.64.78,1.38.69,2.22-.1.76-.47,1.41-1.14,1.94-.68.51-1.44.74-2.3.63-.05.46.4.75,1.36.84l1.84.23-.3,2.47-1.75-.18c-1.01-.13-1.57.26-1.68,1.15l-.28,2.51,3.36.38c.88.08,1.46.04,1.77-.16.34-.18.55-.63.63-1.33l1.26-10.95,3.09.35-1.31,11.33ZM142.74,282.89c.06-.28-.03-.52-.18-.75-.14-.16-.35-.28-.66-.35-.3-.04-.55.02-.73.18-.18.16-.31.4-.37.72-.05.3.02.55.18.75.09.16.34.28.67.39.26.02.51-.05.73-.23.17-.13.27-.35.35-.71Z"/><path class="q" d="M168.94,283.51c.05.82-.26,1.53-.92,2.17.25.17.43.42.51.66.11.27.19.66.2,1.15l.46,8.6-3.11.19-.47-8.72c0-.14-.02-.25-.02-.38-.02-.11-.04-.24-.09-.36-.04-.14-.18-.22-.36-.23-.18.01-.36.08-.57.24-.23.16-.45.38-.69.7-.14.13-.29.38-.49.74-.16.2-.35.58-.66,1.07-.23.45-.46.92-.66,1.42-.23.51-.46,1.13-.7,1.87-.18.67-.35,1.33-.51,2.03-.16.69-.25,1.31-.32,1.88l-3.12.14-.48-9.65-.33.14c-.85.05-1.62-.21-2.28-.74-.62-.56-.93-1.24-1-2.04-.04-.82.23-1.54.83-2.17.6-.62,1.33-.97,2.23-1.01.51-.03.96.02,1.37.13.41.12.77.32,1.13.62.64.55.97,1.28,1.02,2.2l.15,2.89c.02.28-.02.97-.15,2.06-.02.21-.05.47-.06.74-.03.25-.08.57-.16.96l.31-1.41c.23-.96.39-1.54.51-1.75.13-.22.27-.44.43-.67.15-.21.35-.47.58-.72.45-.48.88-.91,1.33-1.23-.21-.4-.33-.8-.34-1.23-.05-.81.22-1.5.85-2.12.59-.61,1.32-.95,2.21-.98.86-.06,1.62.21,2.31.78.66.49,1.03,1.16,1.06,2.01ZM157.43,284.18c-.02-.3-.11-.51-.27-.67-.16-.18-.4-.26-.74-.29-.3.01-.47.11-.64.29-.14.18-.23.43-.23.76s.1.56.29.73c.06.06.15.11.28.16.12.05.27.1.42.11.27-.02.51-.13.68-.34.14-.14.21-.39.23-.74ZM166.76,283.63c-.02-.28-.11-.49-.33-.65-.13-.15-.37-.23-.71-.24-.28,0-.51.12-.67.29-.14.14-.23.37-.26.69.03.27.11.5.33.68.14.12.39.18.68.21.3,0,.52-.09.67-.27.18-.17.26-.41.28-.71Z"/><path class="q" d="M186.38,289.26c.26,1.36.14,2.37-.32,3.09-.51.71-1.52,1.23-3.1,1.5l-7.59,1.4-1.36-7.18c-.16-.91,0-1.71.47-2.4.51-.69,1.25-1.12,2.25-1.32.44-.07.87-.08,1.25-.02.39.08.75.23,1.13.47.74.47,1.17,1.11,1.33,1.92.14.8-.05,1.53-.54,2.19-.45.63-1.13,1.01-2.02,1.19l-.31.05.38,2.06,3.46-.63c.84-.15,1.38-.36,1.62-.66.29-.27.35-.76.22-1.45l-1.14-5.98c-.08-.42-.21-.78-.4-1.07-.21-.29-.47-.55-.84-.76-.65-.4-1.48-.51-2.5-.32-.85.16-1.58.51-2.16,1.05-.56.54-.91,1.23-1.04,2.04l-3.15.59c.18-1.57.81-2.9,1.89-4.03.51-.51,1.13-.96,1.83-1.32.72-.35,1.51-.62,2.43-.79.88-.16,1.68-.19,2.4-.12.74.11,1.46.3,2.16.66,1.32.64,2.1,1.62,2.36,2.97l1.29,6.86ZM178.28,287.11c-.03-.3-.18-.5-.39-.66-.18-.1-.43-.14-.72-.13-.27.04-.47.18-.62.41-.1.13-.15.39-.15.72.06.25.2.45.42.64.16.1.39.14.74.14.24-.06.45-.19.6-.39.12-.16.14-.41.13-.72Z"/><path class="q" d="M203.88,288.38l-2.98.89-3.05-9.84c-.27-.85-.73-1.44-1.42-1.73-.35-.15-.71-.25-1.06-.28-.39-.03-.8.03-1.21.16-.67.2-1.21.47-1.63.82-.39.29-.69.68-.97,1.17.6.08,1.13.21,1.59.37.46.14.92.35,1.31.61-1.16.77-1.55,1.78-1.17,3.01l2.25,7.31-2.98.89-2.28-7.42c-.16-.52-.16-1.09.02-1.63.18-.54.49-.97.91-1.34-.42-.18-1.09-.32-1.99-.4l-1.34-.04c.36-1.3,1-2.42,1.89-3.42,1.01-1.08,2.24-1.85,3.74-2.3,1.62-.48,3.13-.48,4.49.02,1.35.47,2.24,1.46,2.74,2.98l3.14,10.17Z"/><path class="q" d="M218.33,282.53l-2.86,1.21-4.13-9.44c-.35-.82-.84-1.36-1.47-1.67-.33-.1-.64-.18-.99-.16-.35.02-.72.08-1.06.24-.67.27-1.13.74-1.43,1.39-.23.6-.27,1.25-.18,1.97l-2.96,1.26c-.14-.78-.15-1.5-.07-2.16.07-.65.31-1.31.64-1.95.32-.67.75-1.21,1.27-1.66.49-.46,1.13-.84,1.91-1.17.76-.34,1.49-.52,2.16-.57.68-.06,1.34.02,2.04.25,1.31.43,2.25,1.29,2.83,2.62l4.29,9.83Z"/><path class="q" d="M226.25,262.38c-.08,1.43-.72,2.47-1.91,3.15-.27.16-1.04.33-2.27.55-.69.13-1.21.28-1.54.47-.35.19-.67.5-.86.88-.22.37-.31.72-.26,1.02.57-.31,1.16-.59,1.72-.8.24-.13.6-.27,1.05-.41.27-.08.54-.16.8-.26.62-.18,1.17-.29,1.67-.33.48-.06.92-.02,1.29.1.79.21,1.42.73,1.91,1.6l2.53,4.38c.46.79.59,1.58.35,2.39-.22.78-.8,1.46-1.69,1.96-.39.21-.78.35-1.19.43-.39.05-.79.03-1.24-.08-.82-.2-1.43-.64-1.83-1.35-.38-.65-.46-1.36-.25-2.16.26-.81.76-1.42,1.53-1.85l.27-.17-1.15-2c-.24-.43-.72-.66-1.42-.66-.58,0-1.21.12-1.91.4-.68.28-1.42.64-2.19,1.07l-.53.31-.16.08c-.42.24-.78.42-1.09.57l-1.08.6c-.53-1.39-.58-2.82-.12-4.3.47-1.64,1.42-2.86,2.82-3.65.39-.24.89-.41,1.47-.53.35-.07.54-.14.65-.17.08-.02.46-.1,1.09-.2.09-.07.18-.12.27-.19.07-.09.14-.19.2-.32.06-.12.1-.19.1-.21.05-.15.08-.36.13-.6l2.82.27ZM228.33,274.09c-.13-.22-.29-.39-.51-.44-.19-.06-.47-.03-.76.08-.24.15-.4.34-.47.59-.05.18,0,.42.11.69.14.25.31.39.55.46.19.07.44.04.75-.09.27-.14.4-.32.45-.6.06-.17.02-.4-.11-.7Z"/><path class="q" d="M247.28,264.34l-2.45,1.86-6.05-7.79c-.58-.71-1.25-1.16-2.08-1.29-.93-.18-1.85.08-2.76.78-.88.64-1.42,1.43-1.62,2.37-.22.86-.05,1.64.49,2.33l.58.74c.1.15.27.29.43.47.18.19.37.38.6.61l.64.81.99,1.27-1.26-2.36c-.09-.18-.16-.34-.26-.52-.09-.14-.17-.33-.23-.53-.13-.25-.21-.47-.25-.64-.04-.11-.06-.24-.06-.41-.24-1.24.14-2.25,1.18-3.03.64-.5,1.32-.7,2.01-.63.7.05,1.3.39,1.77,1.01.43.57.63,1.21.51,1.91-.09.72-.46,1.31-1.11,1.83l-.43.31-.69.23c.26.76.65,1.78,1.2,3.06l1.43,3.17-2.49,1.87-1.71-2.2c-.33-.43-.74-.89-1.13-1.28-.43-.41-.96-.85-1.58-1.35-1.21-.95-2.07-1.8-2.61-2.51-.92-1.19-1.2-2.59-.88-4.23.16-.8.5-1.56,1.01-2.3.52-.74,1.19-1.42,2.04-2.07,1.54-1.17,3.16-1.7,4.82-1.62,1.52.15,2.77.81,3.71,2.04l6.23,8.06ZM237.57,260.5c-.16-.21-.36-.33-.57-.36-.23,0-.47.05-.75.23-.24.17-.38.36-.43.58,0,.22.04.46.19.72.15.21.39.32.63.36.19.01.43-.05.72-.23.24-.16.37-.37.4-.58.03-.23-.02-.46-.18-.73Z"/><path class="q" d="M237.04,243.26c1.17,1.3,1.62,2.72,1.29,4.26-.13.74-.4,1.42-.8,2.06-.41.66-.97,1.3-1.71,1.95-.31.27-.65.54-1.02.8-.39.27-.84.51-1.34.8.38-.72.43-1.41.19-2.05-.52.44-1.13.67-1.83.68-.35,0-.65-.05-.94-.17-.27-.11-.51-.29-.73-.51-.39-.44-.56-1.02-.51-1.72.08-.69.39-1.26.92-1.74.6-.52,1.25-.76,1.95-.73.7,0,1.3.25,1.73.76.23.25.43.48.58.71.14.24.3.47.43.78.52-.67.76-1.37.72-2.11-.04-.76-.34-1.45-.9-2.06l1.99-1.73ZM232.67,248.85c-.35-.37-.72-.39-1.12-.04-.39.36-.42.72-.06,1.11.33.38.7.39,1.12.03.41-.35.42-.71.06-1.1Z"/><path class="q" d="M259.11,252.96l-2.17,2.2-7.46-7.2c-.64-.62-1.31-.95-2.02-.99-.32.02-.64.08-.97.23-.31.13-.6.33-.88.61-.5.51-.76,1.11-.77,1.81.02.66.22,1.3.6,1.92l-2.26,2.24c-.43-.64-.74-1.3-.89-1.95-.19-.66-.24-1.32-.19-2.06.08-.73.24-1.39.55-2,.3-.62.73-1.2,1.33-1.79.59-.6,1.18-1.05,1.79-1.35.58-.3,1.24-.47,1.97-.52,1.38-.09,2.59.36,3.64,1.36l7.74,7.49Z"/><path class="q" d="M266.01,240.52c.58.45.89,1.08.97,1.89.08.81-.13,1.54-.64,2.2-.27.37-.58.65-.9.89-.32.21-.67.34-1.07.4-.76.12-1.47-.1-2.14-.64l-13.57-10.94.28,2.91c-1.45-.43-2.84-.62-4.19-.52-.54.04-1.09.13-1.6.28-.54.12-1.06.32-1.58.56l.27-3.1c.69-.27,1.55-.45,2.56-.52.56,0,1.17.05,1.81.13l-.21-2.89c.83-1.08,1.79-1.2,2.88-.33l13.07,10.56.25-.23c.24-.32.51-.58.8-.76.29-.19.64-.33,1.05-.37.71-.15,1.36,0,1.94.47ZM264.8,242.14c-.19-.14-.4-.19-.6-.19-.19,0-.36.12-.59.35-.16.23-.23.43-.2.64.04.19.14.41.35.62.2.14.41.23.63.2.16,0,.37-.13.58-.36.16-.2.23-.44.18-.66-.02-.2-.14-.38-.35-.61Z"/><path class="q" d="M277.4,227.2l-1.59,2.65-10.07-5.9c-.76-.44-1.25-.49-1.47-.18-.08.15.03.47.45.97l8.34,9.64-1.57,2.64-8.44-4.92-.05.33c-.44.72-1.09,1.21-1.9,1.45-.82.21-1.58.1-2.31-.32-.69-.41-1.15-1.03-1.36-1.85-.18-.85-.06-1.62.38-2.39.27-.43.55-.78.89-1.04.33-.29.71-.47,1.13-.58.8-.23,1.63-.11,2.44.37l1.85,1.07c.35.21,1.35.94,3,2.15.15.11.34.22.54.36.17.14.37.34.6.58l-1.64-1.52c-1.21-1.07-1.9-1.73-2.08-1.97l-2.48-2.65c-.88-1.05-.94-2.21-.14-3.52.55-.94,1.31-1.57,2.24-1.85.93-.29,1.95-.11,3.05.52l10.2,5.97ZM260.91,230.12c-.27-.16-.49-.22-.72-.18-.24.04-.46.19-.64.45-.16.24-.2.47-.13.69.09.21.23.43.51.64.26.15.52.2.79.15.09,0,.18-.07.29-.15.1-.08.21-.17.31-.31.14-.21.18-.47.1-.72-.06-.19-.23-.39-.5-.58Z"/><path class="q" d="M281.02,209.83c1.22.52,2.04,1.18,2.38,1.95.35.76.2,1.9-.45,3.41l-2.96,6.86-4.8-2.02c-.69-.27-1.11-.64-1.34-1.13-.19-.43-.26-.9-.16-1.41-.16.25-.34.47-.49.62-.15.16-.35.3-.58.43-.58.34-1.21.37-1.86.08l-2.49-1.05c-.84-.35-1.42-.91-1.75-1.7-.31-.79-.24-1.67.15-2.59.19-.42.42-.77.68-1.05.27-.28.62-.51,1.05-.68.77-.35,1.58-.36,2.36-.03.72.31,1.24.84,1.55,1.64.33.77.33,1.58-.02,2.35.43.16.83-.18,1.19-1.05l.73-1.67,2.33.98-.69,1.59c-.39.93-.18,1.56.64,1.91l2.36.99,1.33-3.06c.34-.8.47-1.37.35-1.73-.1-.35-.46-.68-1.12-.97l-10.3-4.32,1.24-2.82,10.65,4.46ZM269.87,213.5c-.27-.11-.52-.14-.8-.04-.18.09-.37.25-.53.53-.1.27-.1.51-.02.72.1.22.3.39.58.56.29.12.56.15.8.04.18-.07.36-.24.57-.52.09-.24.09-.5,0-.76-.09-.19-.27-.37-.6-.54Z"/><polygon class="l" points="268.38 101.76 268.36 101.73 268.38 101.76 268.38 101.76"/><path class="q" d="M36.22,152.52l-.1,2.91-4.85,2.02c-1.55.63-3.35,1.21-5.4,1.79l3.82-.14h3.76l2.52.1-.1,2.82-13.39-.54.1-2.87,4.95-2.01c.59-.26,1.42-.56,2.45-.92.23-.08.64-.21,1.25-.37.28-.09.86-.26,1.71-.52l-3.83.12c-.2,0-.45-.02-.75-.02-.33-.01-.54-.03-.64-.03-.7-.03-1.21-.04-1.54-.03-.31,0-.61.03-.83.1l-2.62-.12.1-2.8,13.39.52Z"/><path class="q" d="M36.67,147.43l-.26,2.81-13.34-1.23.27-2.83,13.33,1.25Z"/><path class="q" d="M24.99,133.89l12.77,5.24-.56,3.69-13.73,1.28.44-2.98,8.76-.42,1.07-.03,1.23.03c.06.02.16.02.24.02.08.02.21.02.37.02l.49-.02c-.08,0-.15-.02-.23-.04-.08-.02-.18-.05-.28-.09l-.56-.17c-.28-.05-.49-.09-.63-.13-.13-.02-.33-.09-.57-.18l-.98-.37-8.29-2.89.45-2.98Z"/><path class="q" d="M40.24,127.17l-1.74,7.68-13.06-3.04,1.75-7.7,1.93.45-1.12,4.92,3.26.78,1.04-4.54,1.92.45-1.01,4.53,4.02.95,1.11-4.93,1.91.46Z"/><path class="q" d="M43.59,116.11l-.9,2.94c-.13.02-.3.02-.5-.03-.19-.02-.43-.05-.68-.1l-1.4-.41-.8-.24c-.57-.19-1.01-.28-1.28-.31-.45-.03-.79.12-.99.42-.21.33-.37.62-.48.86l-.27.89-.18.58-.15.5,5.49,1.76-.83,2.67-12.77-4.11,1.59-5.06c.4-1.27.89-2.17,1.53-2.69.73-.62,1.66-.73,2.8-.37.8.27,1.41.63,1.83,1.07.49.53.7,1.24.55,2.15.32-.68.76-1.15,1.25-1.34.51-.2,1.09-.19,1.74.03.41.13.91.28,1.53.45.6.18,1.03.31,1.23.36.35.12.66.17.89.15.23-.03.45-.1.58-.23l.23.08ZM33.38,116.36c-.65-.21-1.15-.22-1.47-.02-.31.17-.53.56-.72,1.17l-.61,1.95,3.49,1.11.65-2.08c.13-.44.09-.85-.11-1.26-.23-.39-.62-.7-1.23-.88Z"/><path class="q" d="M44.25,105.1c1.14.49,1.86,1.24,2.16,2.26.31,1.03.19,2.2-.35,3.51-.58,1.42-1.35,2.35-2.38,2.8-.9.38-1.93.31-3.1-.19l-.92-.37,1.07-2.61.72.32c.69.28,1.29.39,1.71.31.43-.07.8-.42,1.05-1.06.43-1.06.18-1.79-.79-2.2-.68-.28-1.38-.16-2.08.35-.84.53-1.58,1.02-2.24,1.45-.8.47-1.54.96-2.3,1.44-.38.1-.73.13-1.09.12-.38-.02-.72-.1-1.07-.24-2.16-.93-2.7-2.75-1.58-5.47.7-1.74,1.71-2.7,3.02-2.86.68-.1,1.57.08,2.69.55l-1.03,2.5c-.85-.37-1.5-.49-1.91-.34-.4.13-.71.45-.92.96-.1.23-.17.43-.18.61-.02.21,0,.37.04.56.04.33.27.57.69.73.44.19.84.19,1.26.03.14-.07.52-.32,1.13-.75l1.61-1.23c.76-.54,1.3-.9,1.7-1.07.55-.27,1.06-.42,1.53-.43.24,0,.48.04.73.07.25.05.51.16.83.27Z"/><path class="q" d="M49.58,102.31l-1.25,2.54-12-6.02,1.23-2.54,12.02,6.02Z"/><path class="q" d="M44.68,87.39l-1.6,2.83,9.92,5.73-1.34,2.43-9.91-5.74-1.59,2.83-1.73-1,4.54-8.07,1.72,1Z"/><path class="q" d="M49.42,76.61l4.19,7.67,4.69,3.26-1.56,2.33-4.71-3.27-8.5-1.2,1.68-2.51,3.8.7,1.12.26.93.37c-.1-.13-.26-.31-.41-.49-.16-.19-.31-.42-.46-.66l-.67-1.1-1.76-2.86,1.67-2.51Z"/><path class="q" d="M67.28,66.7c.77.77,1.39,1.46,1.83,2.05.45.58.73,1.12.86,1.58.38,1.34-.14,2.75-1.58,4.27-1.4,1.5-2.78,2.08-4.07,1.76-.47-.11-1.02-.39-1.61-.79-.61-.42-1.32-1.01-2.11-1.8l-1.38-1.33c-.74-.74-1.34-1.4-1.75-1.97-.42-.55-.68-1.08-.8-1.55-.35-1.3.18-2.7,1.6-4.19,1.36-1.44,2.7-2.03,4.03-1.78.93.18,2.15,1.02,3.6,2.42l1.38,1.32ZM66.08,69.53l-2.48-2.41c-.72-.71-1.3-1.15-1.71-1.34-.82-.39-1.57-.27-2.17.37-.57.62-.73,1.25-.47,1.96.08.21.22.43.44.71.2.28.45.53.71.8l.38.38,2.68,2.6c.64.58,1.13.97,1.52,1.12.71.29,1.38.11,1.98-.54.29-.32.48-.64.55-.96.07-.32.04-.68-.12-1.07-.18-.41-.61-.94-1.3-1.64Z"/><path class="q" d="M71.25,55.51l-3.77,3.43,2.24,2.55,3.54-3.2,1.33,1.5-3.54,3.21,4.02,4.59-2.04,1.84-8.93-10.15,5.84-5.26,1.31,1.5Z"/><path class="q" d="M86.74,44.33l-2.69,1.76,6.12,9.77-2.32,1.49-6.13-9.77-2.69,1.75-1.07-1.7,7.71-5,1.06,1.7Z"/><path class="q" d="M102.19,49.08l-2.45,1.3-2.86-5.5-3.38,1.83,2.85,5.49-2.44,1.31-6.25-12.03,2.44-1.31,2.48,4.78,3.38-1.82-2.48-4.77,2.45-1.3,6.26,12.03Z"/><path class="q" d="M111.15,45.04l-7.12,3.17-5.37-12.46,7.11-3.17.8,1.83-4.56,2.04,1.33,3.11,4.21-1.86.79,1.85-4.19,1.86,1.67,3.85,4.54-2.02.8,1.81Z"/><path class="q" d="M124.55,28.31l-3.08.92,3.26,11.12-2.61.79-3.27-11.12-3.05.94-.6-1.92,8.78-2.67.58,1.94Z"/><path class="q" d="M138.05,37.12l-2.72.6-1.28-6.09-3.72.81,1.29,6.08-2.7.6-2.82-13.32,2.69-.58,1.12,5.26,3.74-.81-1.12-5.26,2.72-.6,2.8,13.31Z"/><path class="q" d="M149.43,35.6l-2.94.39-1.13-3.35-3.22.39-.28,3.55-2.89.35,1.79-13.93,3.72-.48,4.95,13.08ZM144.68,30.74l-1.21-3.76c-.03-.15-.1-.31-.14-.46-.05-.16-.11-.33-.19-.53l-.19-.86-.19-.86c-.02.11-.02.25-.02.46v1.89c0,.13,0,.28-.05.47l-.35,3.95,2.33-.29Z"/><path class="q" d="M153.27,35.45l-2.78.18-.81-13.57,2.8-.18.8,13.57Z"/><path class="q" d="M172.23,31.14l-.12.78c-.08,1.34-.47,2.36-1.12,3.04-.76.81-1.84,1.16-3.3,1.06-2.07-.17-3.38-.86-3.98-2.07-.18-.43-.34-1.02-.39-1.77-.07-.76-.07-1.7.04-2.82l.13-1.92c.06-1.07.2-1.95.35-2.62.18-.7.41-1.22.69-1.6.77-1.11,2.17-1.58,4.21-1.44,2.44.18,3.69,1.48,3.75,3.81v.53c-.03.26-.02.45.02.51l-2.74-.2c-.02-.47-.02-.77-.04-.89,0-.12,0-.35-.05-.67-.14-.66-.5-1-1.08-1.05-.82-.06-1.42.26-1.81.94-.12.25-.22.52-.3.82-.06.3-.12.66-.16,1.08l-.02.43-.27,3.76c-.06.87-.02,1.52.14,1.91.27.74.81,1.15,1.65,1.21.66.05,1.1-.33,1.36-1.11.03-.15.07-.41.14-.78.06-.37.09-.76.12-1.15l2.78.21Z"/><path class="q" d="M182.65,37.76l-2.74-.46,1.02-6.11-3.76-.66-1.01,6.11-2.74-.47,2.24-13.43,2.73.5-.89,5.29,3.77.66.89-5.31,2.71.49-2.24,13.39Z"/><path class="q" d="M193.7,40.75l-2.86-.8.22-3.5-3.16-.88-1.55,3.13-2.83-.75,6.89-12.21,3.59,1-.29,14ZM191.14,34.4l.27-3.92c.03-.17.03-.34.04-.5.03-.15.04-.35.04-.55l.14-.86.15-.89c-.04.09-.12.22-.22.41-.06.18-.13.33-.17.47-.06.12-.1.24-.14.34-.11.27-.19.45-.23.55-.03.12-.06.25-.13.39-.05.13-.14.27-.23.42l-1.78,3.51,2.25.62Z"/><path class="q" d="M206.3,45.63l-2.58-1.03,1.54-3.99c.14-.35.32-.84.6-1.47.26-.61.44-1.07.53-1.34.49-1.23.94-2.36,1.38-3.33.2-.49.43-.92.62-1.34l-7.22,10.46-1.54-.6,1.74-12.61-.08-.05c-.05.12-.26.68-.61,1.67-.35.99-.59,1.7-.76,2.13l-1.33,3.85-1.5,3.99-2.61-1.03,4.87-12.68,4.09,1.62-.9,6.44c-.04.18-.08.37-.12.55-.04.28-.06.48-.09.64-.1.64-.26,1.29-.43,1.93l.73-1.44c.17-.34.3-.57.39-.69.07-.13.23-.35.42-.64l3.66-5.34,4.07,1.61-4.87,12.69Z"/><path class="q" d="M217.58,46.87l-.18.31c-.03.08-.08.16-.13.26-.05.09-.09.17-.11.23-.1.18-.28.39-.52.6-1.2,1.2-2.65,1.39-4.3.51l-4.34-2.24,6.07-12.13,3.93,2.05c.7.35,1.23.69,1.6,1.02.38.34.64.74.75,1.23.1.5.11.94.05,1.31-.06.39-.23.8-.47,1.29-.14.31-.32.57-.47.79-.17.22-.35.41-.56.54-.46.32-1.07.45-1.85.38.62.43.94.99,1.01,1.64.02.3,0,.66-.08,1.03-.07.39-.23.77-.4,1.18ZM215.01,45.63c.35-.69.47-1.23.37-1.63-.1-.41-.51-.79-1.26-1.17l-.92-.48-1.86,3.69.53.27.56.27c.33.19.68.29.99.32.32.04.62-.05.91-.28.23-.26.46-.58.68-1ZM217.39,40.12c.22-.47.31-.87.27-1.2-.1-.31-.39-.59-.88-.88l-1.12-.58-1.57,3.09.47.23.35.19c.34.18.6.29.78.34.23.1.5.08.8-.02.11-.08.28-.22.47-.44l.43-.74Z"/><path class="q" d="M223.82,55.5l-6.64-4.09,6.97-11.64,6.64,4.12-1.03,1.7-4.26-2.62-1.74,2.9,3.9,2.42-1.02,1.73-3.91-2.42-2.15,3.59,4.26,2.63-1.02,1.69Z"/><path class="q" d="M233.18,62.18l-2.48-1.79c.02-.12.08-.27.16-.46.09-.18.19-.4.31-.63l.82-1.25.47-.66c.35-.52.57-.89.67-1.15.18-.43.14-.81-.1-1.11-.23-.29-.44-.54-.64-.7l-.76-.55-.47-.35-.4-.3-3.36,4.78-2.24-1.63,7.77-11.07,4.26,3.07c1.08.77,1.75,1.54,2.05,2.3.35.89.18,1.83-.51,2.81-.5.7-1.01,1.19-1.55,1.46-.66.32-1.38.27-2.19-.13.56.53.84,1.07.88,1.64.02.53-.15,1.09-.56,1.67-.26.34-.55.78-.89,1.32-.36.54-.6.89-.72,1.08-.21.31-.35.58-.4.84-.07.24-.04.43.03.6l-.14.23ZM236.07,52.22c.41-.56.56-1.04.5-1.42-.09-.31-.38-.66-.9-1.05l-1.64-1.17-2.1,3.04,1.74,1.28c.36.27.76.35,1.21.28.43-.11.84-.4,1.19-.94Z"/><path class="q" d="M251.24,70.79c-.77.77-1.46,1.36-2.06,1.8-.57.43-1.12.71-1.59.82-1.34.35-2.7-.24-4.14-1.72-1.43-1.5-1.97-2.89-1.62-4.19.12-.51.41-1.05.84-1.63.43-.6,1.02-1.31,1.83-2.08l1.34-1.35c.76-.76,1.42-1.33,1.99-1.74.56-.39,1.08-.65,1.55-.75,1.3-.31,2.65.27,4.07,1.75,1.38,1.42,1.93,2.8,1.63,4.14-.23.97-1.05,2.15-2.5,3.58l-1.35,1.36ZM248.49,69.48l2.47-2.43c.72-.73,1.17-1.27,1.37-1.67.43-.86.31-1.6-.31-2.25-.57-.6-1.21-.76-1.91-.52-.18.08-.42.21-.7.41-.27.22-.56.45-.82.71l-.37.36-2.65,2.65c-.61.61-1.01,1.12-1.17,1.5-.31.72-.13,1.38.47,2.02.31.31.61.51.95.6.29.08.65.04,1.05-.1.38-.16.93-.58,1.62-1.27Z"/><path class="q" d="M262.1,75.29l-3.19-3.96-2.61,2.18,3.01,3.73-1.54,1.27-3.01-3.71-4.69,3.89-1.75-2.16,10.39-8.62,4.95,6.11-1.55,1.27Z"/><path class="q" d="M267.44,94.21l-.69.36c-1.12.71-2.16.97-3.09.85-1.08-.16-2.01-.84-2.74-2.12-1.1-1.79-1.34-3.27-.7-4.47.23-.42.61-.88,1.18-1.37.56-.49,1.31-1.03,2.24-1.62l1.6-1.02c.93-.56,1.69-.97,2.33-1.24.64-.25,1.21-.39,1.68-.39,1.33,0,2.53.88,3.6,2.63,1.29,2.15,1.01,3.91-.86,5.34l-.4.29c-.23.15-.35.26-.39.34l-1.45-2.38c.39-.29.63-.48.72-.55.09-.07.27-.23.49-.43.44-.51.51-1.02.18-1.53-.41-.7-1.01-1-1.79-.93-.29.05-.54.11-.84.23-.29.13-.59.29-.94.51l-.38.23-3.17,1.98c-.72.47-1.21.87-1.43,1.25-.43.64-.43,1.32,0,2.05.35.57.9.72,1.7.47.12-.05.35-.17.7-.34.31-.19.66-.37.97-.57l1.46,2.41Z"/><path class="q" d="M273.7,104.1c-.97.49-1.81.86-2.49,1.09-.69.23-1.27.33-1.75.31-1.38-.09-2.51-1.06-3.45-2.94-.94-1.83-1.04-3.34-.31-4.47.26-.43.69-.87,1.27-1.3.6-.45,1.38-.93,2.36-1.43l1.69-.87c.95-.49,1.75-.84,2.42-1.04.65-.23,1.23-.31,1.7-.25,1.33.08,2.45,1.06,3.38,2.9.88,1.79.97,3.26.31,4.45-.47.85-1.64,1.71-3.44,2.65l-1.69.88ZM271.48,102.02l3.06-1.58c.88-.47,1.52-.88,1.78-1.2.68-.68.83-1.42.39-2.22-.37-.74-.93-1.1-1.65-1.09-.22.01-.47.07-.8.19-.32.12-.65.26-.98.43l-.47.24-3.31,1.72c-.76.39-1.3.74-1.55,1.08-.5.58-.55,1.28-.14,2.06.19.4.43.69.72.85.26.19.61.26,1.02.23.44,0,1.08-.27,1.95-.7Z"/><path class="q" d="M273.87,120.47l-1-2.62,3.93-1.56c.35-.12.83-.31,1.47-.54.63-.22,1.07-.39,1.34-.49,1.23-.51,2.33-.9,3.34-1.25.48-.18.95-.31,1.38-.42l-12.46,1.63-.59-1.56,10.34-7.21-.02-.1c-.12.05-.67.27-1.63.68-.96.43-1.65.7-2.04.88l-3.69,1.6-3.93,1.54-1.01-2.6,12.5-4.93,1.58,4.14-5.27,3.7c-.16.08-.33.19-.47.28-.22.17-.41.27-.53.37-.54.33-1.09.66-1.7.97l1.55-.41c.35-.1.61-.17.76-.2.16-.02.39-.04.76-.09l6.33-.87,1.58,4.14-12.49,4.91Z"/><path class="q" d="M277.61,134.74l-.68-2.73,4.08-1.06c.36-.11.87-.23,1.51-.37.64-.16,1.1-.26,1.38-.34,1.28-.33,2.45-.61,3.49-.82.48-.11.96-.19,1.41-.29l-12.56.18-.4-1.63,11.08-5.92-.03-.11c-.11.03-.68.21-1.67.49-1,.29-1.72.5-2.12.62l-3.85,1.16-4.09,1.07-.69-2.72,12.97-3.4,1.09,4.31-5.64,3.05c-.18.06-.35.14-.53.21-.24.14-.43.23-.55.3-.59.27-1.17.54-1.8.78l1.61-.24c.35-.06.6-.08.74-.08.14-.02.4-.03.76-.02l6.39-.12,1.09,4.32-12.98,3.4Z"/><path class="q" d="M279.07,144.43l-1.19-7.79,13.24-2.08,1.17,7.79-1.94.32-.77-5.02-3.31.52.72,4.61-1.96.29-.72-4.59-4.07.64.76,4.99-1.92.31Z"/><path class="q" d="M279.92,155.94l-.22-3.09c.11-.06.26-.1.46-.16.19-.04.43-.09.67-.13l1.46-.16.83-.07c.6-.03,1.05-.09,1.29-.2.46-.14.7-.39.78-.76.08-.35.14-.69.14-.97l-.06-.93-.05-.62-.03-.5-5.74.4-.19-2.81,13.38-.91.35,5.29c.07,1.36-.07,2.38-.47,3.08-.47.86-1.29,1.31-2.48,1.38-.84.07-1.53-.04-2.08-.3-.67-.31-1.09-.9-1.28-1.78-.07.78-.3,1.33-.7,1.7-.4.37-.93.58-1.63.63-.41.02-.94.06-1.58.14-.64.05-1.07.09-1.27.12-.36,0-.65.08-.88.2-.23.11-.38.26-.45.41l-.25.03ZM289.34,151.91c.68-.03,1.13-.22,1.38-.52.2-.26.27-.72.24-1.37l-.14-2.03-3.64.26.13,2.16c.06.47.23.85.58,1.14.35.29.83.41,1.46.36Z"/><path class="q" d="M284.47,166.52l-.76-.07c-1.34-.02-2.35-.38-3.04-1.01-.83-.7-1.25-1.8-1.2-3.27.05-2.12.66-3.49,1.83-4.14.4-.23.99-.39,1.72-.5.74-.11,1.65-.13,2.74-.12l1.9.05c1.07.03,1.94.11,2.61.24.68.14,1.23.33,1.62.61,1.14.72,1.67,2.11,1.62,4.18-.07,2.49-1.26,3.83-3.57,4.01h-.5c-.26.01-.44.02-.51.08l.04-2.8c.47-.02.77-.06.89-.08.12,0,.34-.03.68-.08.63-.18.93-.57.95-1.17.02-.81-.31-1.41-1.02-1.77-.22-.12-.51-.21-.81-.28-.3-.04-.64-.08-1.08-.1l-.42-.02-3.71-.08c-.85-.03-1.48.05-1.87.26-.72.29-1.09.85-1.11,1.72,0,.68.37,1.1,1.19,1.32.1.03.36.06.74.1.39,0,.76.04,1.15.04l-.08,2.84Z"/><path class="q" d="M278.76,175.83l.79-7.84,13.33,1.41-.79,7.86-2-.22.52-5.02-3.33-.35-.48,4.61-1.97-.21.49-4.62-4.13-.43-.5,5.03-1.94-.21Z"/><path class="q" d="M36.47,168.16c-.06-.71-.21-1.04-.21-1.04h0c-.16-.6-.43-1.06-.78-1.43-.02-.04-.05-.06-.09-.1-.02-.01-.05-.05-.08-.07-.03-.03-.07-.06-.12-.1-1.03-.87-2.33-.93-2.33-.93l-2.16-.11-8.28-.29-.02,2.91,6.69.16,2.68.19c.65.03,1.17.13,1.54.28.76.38.91,1.19.96,1.64,0,.2-.02.4-.05.56h0v.05c-.04.26-.07.45-.1.57-.1.3-.31.64-.71.85-.29.11-.71.19-1.26.22-.06,0-.1,0-.16,0h0c-.12,0-.21.02-.34.02l-9.25.07v2.11s.06.62.06.62l9.44-.09c1.6-.01,2.75-.36,3.45-1.03.24-.22.43-.52.58-.87v.03s.84-1.85.54-4.19Z"/></g></svg>